<svg viewBox="0 0 600 470.0" xmlns="http://www.w3.org/2000/svg" font-family="Georgia,'Times New Roman',serif">
<rect width="600" height="470.0" fill="#f4eedd"/>
<text x="40" y="40" font-size="17" fill="#1f1c14">Italský věžní stroj (imaginární) <tspan font-size="12" fill="#8a8170">— čelní pohled</tspan></text>
<text x="40" y="58" font-size="11" fill="#8a8170">kola = roztečné kružnice (⌀ ∝ zubům) · záběr = dotyk kružnic · režim: schématický (z počtu zubů)</text>
<line x1="158.0" y1="228.0" x2="279.3" y2="282.0" stroke="#8a8170" stroke-width="0.6" stroke-dasharray="2 3"/>
<circle cx="265.8" cy="276.0" r="2.4" fill="none" stroke="#9a3b2e" stroke-width="1.1"/>
<line x1="279.3" y1="282.0" x2="400.5" y2="228.0" stroke="#8a8170" stroke-width="0.6" stroke-dasharray="2 3"/>
<circle cx="387.1" cy="234.0" r="2.4" fill="none" stroke="#9a3b2e" stroke-width="1.1"/>
<line x1="400.5" y1="228.0" x2="503.9" y2="274.0" stroke="#8a8170" stroke-width="0.6" stroke-dasharray="2 3"/>
<circle cx="494.8" cy="270.0" r="2.4" fill="none" stroke="#9a3b2e" stroke-width="1.1"/>
<circle cx="158.0" cy="228.0" r="118.0" fill="none" stroke="#9a3b2e" stroke-width="1.4"/>
<text x="158.0" y="106.0" font-size="11" fill="#9a3b2e" text-anchor="middle">96</text>
<circle cx="158.0" cy="228.0" r="2.2" fill="#1f1c14"/>
<circle cx="279.3" cy="282.0" r="118.0" fill="none" stroke="#9a3b2e" stroke-width="1.4"/>
<circle cx="279.3" cy="282.0" r="14.8" fill="#9a3b2e" fill-opacity="0.18" stroke="#9a3b2e" stroke-width="1.3"/>
<text x="279.3" y="160.0" font-size="11" fill="#9a3b2e" text-anchor="middle">96</text>
<text x="285.3" y="285.0" font-size="9" fill="#9a3b2e">12</text>
<circle cx="279.3" cy="282.0" r="2.2" fill="#1f1c14"/>
<circle cx="400.5" cy="228.0" r="103.2" fill="none" stroke="#9a3b2e" stroke-width="1.4"/>
<circle cx="400.5" cy="228.0" r="14.8" fill="#9a3b2e" fill-opacity="0.18" stroke="#9a3b2e" stroke-width="1.3"/>
<text x="400.5" y="120.8" font-size="11" fill="#9a3b2e" text-anchor="middle">84</text>
<text x="406.5" y="231.0" font-size="9" fill="#9a3b2e">12</text>
<circle cx="400.5" cy="228.0" r="2.2" fill="#1f1c14"/>
<circle cx="503.9" cy="274.0" r="18.4" fill="none" stroke="#5b4b8a" stroke-width="1.4"/>
<circle cx="503.9" cy="274.0" r="9.8" fill="#9a3b2e" fill-opacity="0.18" stroke="#9a3b2e" stroke-width="1.3"/>
<text x="503.9" y="251.6" font-size="11" fill="#5b4b8a" text-anchor="middle">15</text>
<text x="509.9" y="277.0" font-size="9" fill="#9a3b2e">8</text>
<circle cx="503.9" cy="274.0" r="2.2" fill="#1f1c14"/>
<circle cx="45" cy="450.0" r="5" fill="none" stroke="#9a3b2e" stroke-width="1.4"/>
<text x="55" y="454.0" font-size="10" fill="#8a8170">Jicí soukolí</text>
<circle cx="162" cy="450.0" r="5" fill="none" stroke="#5b4b8a" stroke-width="1.4"/>
<text x="172" y="454.0" font-size="10" fill="#8a8170">Vřetenový krok</text>
<text x="560" y="40" font-size="10" fill="#8a8170" text-anchor="end" font-style="italic">horonotace · vrstva E</text>
</svg>