<svg viewBox="0 0 940 560" xmlns="http://www.w3.org/2000/svg" font-family="Georgia,'Times New Roman',serif" role="img">
<defs></defs>
<rect width="940" height="560" fill="#f4eedd"/>
<text x="40" y="44" font-size="21" fill="#1f1c14">Italský věžní stroj (imaginární)</text>
<text x="40" y="66" font-size="12" fill="#6b6253">Pohled na číselník (vrstva D). Soustředné stupnice (italské + francouzské hodiny, minuty); polohy ilustrativní.</text>
<circle cx="470" cy="300" r="218" fill="none" stroke="#b0863a" stroke-width="8" stroke-opacity="0.85"/>
<circle cx="470" cy="300" r="202" fill="none" stroke="#7d5e26" stroke-width="0.8"/>
<line x1="470.0" y1="86.0" x2="470.0" y2="78.0" stroke="#f4eedd" stroke-width="1.1"/>
<text x="470.0" y="112.0" font-size="10.5" fill="#1f1c14" text-anchor="middle">I</text>
<line x1="525.4" y1="93.3" x2="527.5" y2="85.6" stroke="#f4eedd" stroke-width="1.1"/>
<text x="519.7" y="118.5" font-size="10.5" fill="#1f1c14" text-anchor="middle">II</text>
<line x1="577.0" y1="114.7" x2="581.0" y2="107.7" stroke="#f4eedd" stroke-width="1.1"/>
<text x="566.0" y="137.7" font-size="10.5" fill="#1f1c14" text-anchor="middle">III</text>
<line x1="621.3" y1="148.7" x2="627.0" y2="143.0" stroke="#f4eedd" stroke-width="1.1"/>
<text x="605.8" y="168.2" font-size="10.5" fill="#1f1c14" text-anchor="middle">IV</text>
<line x1="655.3" y1="193.0" x2="662.3" y2="189.0" stroke="#f4eedd" stroke-width="1.1"/>
<text x="636.3" y="208.0" font-size="10.5" fill="#1f1c14" text-anchor="middle">V</text>
<line x1="676.7" y1="244.6" x2="684.4" y2="242.5" stroke="#f4eedd" stroke-width="1.1"/>
<text x="655.5" y="254.3" font-size="10.5" fill="#1f1c14" text-anchor="middle">VI</text>
<line x1="684.0" y1="300.0" x2="692.0" y2="300.0" stroke="#f4eedd" stroke-width="1.1"/>
<text x="662.0" y="304.0" font-size="10.5" fill="#1f1c14" text-anchor="middle">VII</text>
<line x1="676.7" y1="355.4" x2="684.4" y2="357.5" stroke="#f4eedd" stroke-width="1.1"/>
<text x="655.5" y="353.7" font-size="10.5" fill="#1f1c14" text-anchor="middle">VIII</text>
<line x1="655.3" y1="407.0" x2="662.3" y2="411.0" stroke="#f4eedd" stroke-width="1.1"/>
<text x="636.3" y="400.0" font-size="10.5" fill="#1f1c14" text-anchor="middle">IX</text>
<line x1="621.3" y1="451.3" x2="627.0" y2="457.0" stroke="#f4eedd" stroke-width="1.1"/>
<text x="605.8" y="439.8" font-size="10.5" fill="#1f1c14" text-anchor="middle">X</text>
<line x1="577.0" y1="485.3" x2="581.0" y2="492.3" stroke="#f4eedd" stroke-width="1.1"/>
<text x="566.0" y="470.3" font-size="10.5" fill="#1f1c14" text-anchor="middle">XI</text>
<line x1="525.4" y1="506.7" x2="527.5" y2="514.4" stroke="#f4eedd" stroke-width="1.1"/>
<text x="519.7" y="489.5" font-size="10.5" fill="#1f1c14" text-anchor="middle">XII</text>
<line x1="470.0" y1="514.0" x2="470.0" y2="522.0" stroke="#f4eedd" stroke-width="1.1"/>
<text x="470.0" y="496.0" font-size="10.5" fill="#1f1c14" text-anchor="middle">XIII</text>
<line x1="414.6" y1="506.7" x2="412.5" y2="514.4" stroke="#f4eedd" stroke-width="1.1"/>
<text x="420.3" y="489.5" font-size="10.5" fill="#1f1c14" text-anchor="middle">XIV</text>
<line x1="363.0" y1="485.3" x2="359.0" y2="492.3" stroke="#f4eedd" stroke-width="1.1"/>
<text x="374.0" y="470.3" font-size="10.5" fill="#1f1c14" text-anchor="middle">XV</text>
<line x1="318.7" y1="451.3" x2="313.0" y2="457.0" stroke="#f4eedd" stroke-width="1.1"/>
<text x="334.2" y="439.8" font-size="10.5" fill="#1f1c14" text-anchor="middle">XVI</text>
<line x1="284.7" y1="407.0" x2="277.7" y2="411.0" stroke="#f4eedd" stroke-width="1.1"/>
<text x="303.7" y="400.0" font-size="10.5" fill="#1f1c14" text-anchor="middle">XVII</text>
<line x1="263.3" y1="355.4" x2="255.6" y2="357.5" stroke="#f4eedd" stroke-width="1.1"/>
<text x="284.5" y="353.7" font-size="10.5" fill="#1f1c14" text-anchor="middle">XVIII</text>
<line x1="256.0" y1="300.0" x2="248.0" y2="300.0" stroke="#f4eedd" stroke-width="1.1"/>
<text x="278.0" y="304.0" font-size="10.5" fill="#1f1c14" text-anchor="middle">XIX</text>
<line x1="263.3" y1="244.6" x2="255.6" y2="242.5" stroke="#f4eedd" stroke-width="1.1"/>
<text x="284.5" y="254.3" font-size="10.5" fill="#1f1c14" text-anchor="middle">XX</text>
<line x1="284.7" y1="193.0" x2="277.7" y2="189.0" stroke="#f4eedd" stroke-width="1.1"/>
<text x="303.7" y="208.0" font-size="10.5" fill="#1f1c14" text-anchor="middle">XXI</text>
<line x1="318.7" y1="148.7" x2="313.0" y2="143.0" stroke="#f4eedd" stroke-width="1.1"/>
<text x="334.2" y="168.2" font-size="10.5" fill="#1f1c14" text-anchor="middle">XXII</text>
<line x1="363.0" y1="114.7" x2="359.0" y2="107.7" stroke="#f4eedd" stroke-width="1.1"/>
<text x="374.0" y="137.7" font-size="10.5" fill="#1f1c14" text-anchor="middle">XXIII</text>
<line x1="414.6" y1="93.3" x2="412.5" y2="85.6" stroke="#f4eedd" stroke-width="1.1"/>
<text x="420.3" y="118.5" font-size="10.5" fill="#1f1c14" text-anchor="middle">XXIV</text>
<circle cx="470" cy="300" r="168" fill="none" stroke="#7d5e26" stroke-width="1"/>
<text x="470.0" y="152.0" font-size="11" fill="#7d5e26" text-anchor="middle">XII</text>
<text x="546.0" y="172.4" font-size="11" fill="#7d5e26" text-anchor="middle">I</text>
<text x="601.6" y="228.0" font-size="11" fill="#7d5e26" text-anchor="middle">II</text>
<text x="622.0" y="304.0" font-size="11" fill="#7d5e26" text-anchor="middle">III</text>
<text x="601.6" y="380.0" font-size="11" fill="#7d5e26" text-anchor="middle">IV</text>
<text x="546.0" y="435.6" font-size="11" fill="#7d5e26" text-anchor="middle">V</text>
<text x="470.0" y="456.0" font-size="11" fill="#7d5e26" text-anchor="middle">VI</text>
<text x="394.0" y="435.6" font-size="11" fill="#7d5e26" text-anchor="middle">VII</text>
<text x="338.4" y="380.0" font-size="11" fill="#7d5e26" text-anchor="middle">VIII</text>
<text x="318.0" y="304.0" font-size="11" fill="#7d5e26" text-anchor="middle">IX</text>
<text x="338.4" y="228.0" font-size="11" fill="#7d5e26" text-anchor="middle">X</text>
<text x="394.0" y="172.4" font-size="11" fill="#7d5e26" text-anchor="middle">XI</text>
<circle cx="470" cy="300" r="126" fill="none" stroke="#7d5e26" stroke-width="0.7"/>
<line x1="470.0" y1="174.0" x2="470.0" y2="180.0" stroke="#7d5e26" stroke-width="0.8"/>
<line x1="483.2" y1="174.7" x2="482.9" y2="177.7" stroke="#7d5e26" stroke-width="0.8"/>
<line x1="496.2" y1="176.8" x2="495.6" y2="179.7" stroke="#7d5e26" stroke-width="0.8"/>
<line x1="508.9" y1="180.2" x2="508.0" y2="183.0" stroke="#7d5e26" stroke-width="0.8"/>
<line x1="521.2" y1="184.9" x2="520.0" y2="187.6" stroke="#7d5e26" stroke-width="0.8"/>
<line x1="533.0" y1="190.9" x2="530.0" y2="196.1" stroke="#7d5e26" stroke-width="0.8"/>
<line x1="544.1" y1="198.1" x2="542.3" y2="200.5" stroke="#7d5e26" stroke-width="0.8"/>
<line x1="554.3" y1="206.4" x2="552.3" y2="208.6" stroke="#7d5e26" stroke-width="0.8"/>
<line x1="563.6" y1="215.7" x2="561.4" y2="217.7" stroke="#7d5e26" stroke-width="0.8"/>
<line x1="571.9" y1="225.9" x2="569.5" y2="227.7" stroke="#7d5e26" stroke-width="0.8"/>
<line x1="579.1" y1="237.0" x2="573.9" y2="240.0" stroke="#7d5e26" stroke-width="0.8"/>
<line x1="585.1" y1="248.8" x2="582.4" y2="250.0" stroke="#7d5e26" stroke-width="0.8"/>
<line x1="589.8" y1="261.1" x2="587.0" y2="262.0" stroke="#7d5e26" stroke-width="0.8"/>
<line x1="593.2" y1="273.8" x2="590.3" y2="274.4" stroke="#7d5e26" stroke-width="0.8"/>
<line x1="595.3" y1="286.8" x2="592.3" y2="287.1" stroke="#7d5e26" stroke-width="0.8"/>
<line x1="596.0" y1="300.0" x2="590.0" y2="300.0" stroke="#7d5e26" stroke-width="0.8"/>
<line x1="595.3" y1="313.2" x2="592.3" y2="312.9" stroke="#7d5e26" stroke-width="0.8"/>
<line x1="593.2" y1="326.2" x2="590.3" y2="325.6" stroke="#7d5e26" stroke-width="0.8"/>
<line x1="589.8" y1="338.9" x2="587.0" y2="338.0" stroke="#7d5e26" stroke-width="0.8"/>
<line x1="585.1" y1="351.2" x2="582.4" y2="350.0" stroke="#7d5e26" stroke-width="0.8"/>
<line x1="579.1" y1="363.0" x2="573.9" y2="360.0" stroke="#7d5e26" stroke-width="0.8"/>
<line x1="571.9" y1="374.1" x2="569.5" y2="372.3" stroke="#7d5e26" stroke-width="0.8"/>
<line x1="563.6" y1="384.3" x2="561.4" y2="382.3" stroke="#7d5e26" stroke-width="0.8"/>
<line x1="554.3" y1="393.6" x2="552.3" y2="391.4" stroke="#7d5e26" stroke-width="0.8"/>
<line x1="544.1" y1="401.9" x2="542.3" y2="399.5" stroke="#7d5e26" stroke-width="0.8"/>
<line x1="533.0" y1="409.1" x2="530.0" y2="403.9" stroke="#7d5e26" stroke-width="0.8"/>
<line x1="521.2" y1="415.1" x2="520.0" y2="412.4" stroke="#7d5e26" stroke-width="0.8"/>
<line x1="508.9" y1="419.8" x2="508.0" y2="417.0" stroke="#7d5e26" stroke-width="0.8"/>
<line x1="496.2" y1="423.2" x2="495.6" y2="420.3" stroke="#7d5e26" stroke-width="0.8"/>
<line x1="483.2" y1="425.3" x2="482.9" y2="422.3" stroke="#7d5e26" stroke-width="0.8"/>
<line x1="470.0" y1="426.0" x2="470.0" y2="420.0" stroke="#7d5e26" stroke-width="0.8"/>
<line x1="456.8" y1="425.3" x2="457.1" y2="422.3" stroke="#7d5e26" stroke-width="0.8"/>
<line x1="443.8" y1="423.2" x2="444.4" y2="420.3" stroke="#7d5e26" stroke-width="0.8"/>
<line x1="431.1" y1="419.8" x2="432.0" y2="417.0" stroke="#7d5e26" stroke-width="0.8"/>
<line x1="418.8" y1="415.1" x2="420.0" y2="412.4" stroke="#7d5e26" stroke-width="0.8"/>
<line x1="407.0" y1="409.1" x2="410.0" y2="403.9" stroke="#7d5e26" stroke-width="0.8"/>
<line x1="395.9" y1="401.9" x2="397.7" y2="399.5" stroke="#7d5e26" stroke-width="0.8"/>
<line x1="385.7" y1="393.6" x2="387.7" y2="391.4" stroke="#7d5e26" stroke-width="0.8"/>
<line x1="376.4" y1="384.3" x2="378.6" y2="382.3" stroke="#7d5e26" stroke-width="0.8"/>
<line x1="368.1" y1="374.1" x2="370.5" y2="372.3" stroke="#7d5e26" stroke-width="0.8"/>
<line x1="360.9" y1="363.0" x2="366.1" y2="360.0" stroke="#7d5e26" stroke-width="0.8"/>
<line x1="354.9" y1="351.2" x2="357.6" y2="350.0" stroke="#7d5e26" stroke-width="0.8"/>
<line x1="350.2" y1="338.9" x2="353.0" y2="338.0" stroke="#7d5e26" stroke-width="0.8"/>
<line x1="346.8" y1="326.2" x2="349.7" y2="325.6" stroke="#7d5e26" stroke-width="0.8"/>
<line x1="344.7" y1="313.2" x2="347.7" y2="312.9" stroke="#7d5e26" stroke-width="0.8"/>
<line x1="344.0" y1="300.0" x2="350.0" y2="300.0" stroke="#7d5e26" stroke-width="0.8"/>
<line x1="344.7" y1="286.8" x2="347.7" y2="287.1" stroke="#7d5e26" stroke-width="0.8"/>
<line x1="346.8" y1="273.8" x2="349.7" y2="274.4" stroke="#7d5e26" stroke-width="0.8"/>
<line x1="350.2" y1="261.1" x2="353.0" y2="262.0" stroke="#7d5e26" stroke-width="0.8"/>
<line x1="354.9" y1="248.8" x2="357.6" y2="250.0" stroke="#7d5e26" stroke-width="0.8"/>
<line x1="360.9" y1="237.0" x2="366.1" y2="240.0" stroke="#7d5e26" stroke-width="0.8"/>
<line x1="368.1" y1="225.9" x2="370.5" y2="227.7" stroke="#7d5e26" stroke-width="0.8"/>
<line x1="376.4" y1="215.7" x2="378.6" y2="217.7" stroke="#7d5e26" stroke-width="0.8"/>
<line x1="385.7" y1="206.4" x2="387.7" y2="208.6" stroke="#7d5e26" stroke-width="0.8"/>
<line x1="395.9" y1="198.1" x2="397.7" y2="200.5" stroke="#7d5e26" stroke-width="0.8"/>
<line x1="407.0" y1="190.9" x2="410.0" y2="196.1" stroke="#7d5e26" stroke-width="0.8"/>
<line x1="418.8" y1="184.9" x2="420.0" y2="187.6" stroke="#7d5e26" stroke-width="0.8"/>
<line x1="431.1" y1="180.2" x2="432.0" y2="183.0" stroke="#7d5e26" stroke-width="0.8"/>
<line x1="443.8" y1="176.8" x2="444.4" y2="179.7" stroke="#7d5e26" stroke-width="0.8"/>
<line x1="456.8" y1="174.7" x2="457.1" y2="177.7" stroke="#7d5e26" stroke-width="0.8"/>
<line x1="470" y1="300" x2="285.9" y2="378.1" stroke="#8a3a2a" stroke-width="2.6"/>
<line x1="470" y1="300" x2="355.9" y2="337.1" stroke="#1f1c14" stroke-width="1.8"/>
<circle cx="470" cy="300" r="6" fill="#7d5e26"/>
<circle cx="470" cy="300" r="2.4" fill="#f4eedd"/>
<text x="470" y="466" font-size="9" fill="#7d5e26" text-anchor="middle" font-style="italic">ore francesi (12 h)</text>
<text x="470" y="538" font-size="11" fill="#6b6253" text-anchor="middle" font-style="italic">koncentrický číselník (imaginární italský stroj)</text>
<text x="910" y="544" font-size="10" fill="#6b6253" text-anchor="end" font-style="italic">horonotace · vrstva D (číselník)</text>
</svg>