<svg viewBox="0 0 800.4 490" xmlns="http://www.w3.org/2000/svg" font-family="Georgia,'Times New Roman',serif" role="img">
<title>Astronomická indikace — astroláb (ukázka)</title><desc>Schematic gear elevation (horonotace, layer C).</desc>
<rect width="800.4" height="490" fill="#f4eedd"/>
<defs><marker id="ar" markerWidth="9" markerHeight="9" refX="7" refY="3" orient="auto"><path d="M0,0 L7,3 L0,6 z" fill="#33506b"/></marker></defs>
<text x="150" y="44" font-size="21" fill="#1f1c14">Astronomická indikace — astroláb (ukázka)</text>
<text x="150" y="66" font-size="12" fill="#6b6253"></text>
<line x1="80" y1="168" x2="642.4" y2="168" stroke="#1f1c14" stroke-width="2.2"/>
<text x="642.4" y="163" font-size="12" fill="#6b6253" text-anchor="end" font-style="italic">Platine</text>
<line x1="80" y1="320" x2="642.4" y2="320" stroke="#1f1c14" stroke-width="2.2"/>
<text x="642.4" y="315" font-size="12" fill="#6b6253" text-anchor="end" font-style="italic">Platine</text>
<path d="M124.0,148 L124.0,138 L476.0,138 L476.0,148" fill="none" stroke="#5b4b8a" stroke-width="1.2"/>
<text x="300.0" y="133" font-size="12.5" fill="#5b4b8a" text-anchor="middle">Astrolábová indikace</text>
<path d="M524.4,148 L524.4,138 L576.4,138 L576.4,148" fill="none" stroke="#b5702a" stroke-width="1.2"/>
<text x="550.4" y="133" font-size="12.5" fill="#b5702a" text-anchor="middle">Fáze Měsíce</text>
<line x1="150.0" y1="168" x2="150.0" y2="320" stroke="#5b4b8a" stroke-opacity="0.6" stroke-width="1.2"/>
<line x1="145.5" y1="168" x2="154.5" y2="168" stroke="#1f1c14" stroke-width="1.8"/>
<line x1="145.5" y1="320" x2="154.5" y2="320" stroke="#1f1c14" stroke-width="1.8"/>
<line x1="300.0" y1="168" x2="300.0" y2="320" stroke="#5b4b8a" stroke-opacity="0.6" stroke-width="1.2"/>
<line x1="295.5" y1="168" x2="304.5" y2="168" stroke="#1f1c14" stroke-width="1.8"/>
<line x1="295.5" y1="320" x2="304.5" y2="320" stroke="#1f1c14" stroke-width="1.8"/>
<line x1="450.0" y1="168" x2="450.0" y2="320" stroke="#5b4b8a" stroke-opacity="0.6" stroke-width="1.2"/>
<line x1="445.5" y1="168" x2="454.5" y2="168" stroke="#1f1c14" stroke-width="1.8"/>
<line x1="445.5" y1="320" x2="454.5" y2="320" stroke="#1f1c14" stroke-width="1.8"/>
<line x1="550.4" y1="168" x2="550.4" y2="320" stroke="#b5702a" stroke-opacity="0.6" stroke-width="1.2"/>
<line x1="545.9" y1="168" x2="554.9" y2="168" stroke="#1f1c14" stroke-width="1.8"/>
<line x1="545.9" y1="320" x2="554.9" y2="320" stroke="#1f1c14" stroke-width="1.8"/>
<path d="M512.0,232 H526.3499999999999 V232 H540.6999999999999" fill="none" stroke="#1f1c14" stroke-width="1.4"/>
<line x1="523.3499999999999" y1="229.0" x2="529.3499999999999" y2="235.0" stroke="#1f1c14" stroke-width="1"/>
<line x1="90.1" y1="232" x2="209.9" y2="232" stroke="#5b4b8a" stroke-width="1.9"/>
<line x1="90.1" y1="227" x2="90.1" y2="237" stroke="#5b4b8a" stroke-width="1.3"/>
<line x1="209.9" y1="227" x2="209.9" y2="237" stroke="#5b4b8a" stroke-width="1.3"/>
<text x="150.0" y="224" font-size="12.5" font-style="italic" fill="#1f1c14" text-anchor="middle">366</text>
<rect x="147.0" y="229" width="6" height="6" fill="#5b4b8a"/>
<line x1="240.3" y1="232" x2="359.7" y2="232" stroke="#5b4b8a" stroke-width="1.9"/>
<line x1="240.3" y1="227" x2="240.3" y2="237" stroke="#5b4b8a" stroke-width="1.3"/>
<line x1="359.7" y1="227" x2="359.7" y2="237" stroke="#5b4b8a" stroke-width="1.3"/>
<text x="300.0" y="224" font-size="12.5" font-style="italic" fill="#1f1c14" text-anchor="middle">365</text>
<rect x="297.0" y="229" width="6" height="6" fill="#5b4b8a"/>
<line x1="388.0" y1="232" x2="512.0" y2="232" stroke="#5b4b8a" stroke-width="1.9"/>
<line x1="388.0" y1="227" x2="388.0" y2="237" stroke="#5b4b8a" stroke-width="1.3"/>
<line x1="512.0" y1="227" x2="512.0" y2="237" stroke="#5b4b8a" stroke-width="1.3"/>
<text x="450.0" y="224" font-size="12.5" font-style="italic" fill="#1f1c14" text-anchor="middle">379</text>
<rect x="447.0" y="229" width="6" height="6" fill="#5b4b8a"/>
<line x1="540.6999999999999" y1="232" x2="560.1" y2="232" stroke="#b5702a" stroke-width="1.9"/>
<line x1="540.6999999999999" y1="227" x2="540.6999999999999" y2="237" stroke="#b5702a" stroke-width="1.3"/>
<line x1="560.1" y1="227" x2="560.1" y2="237" stroke="#b5702a" stroke-width="1.3"/>
<text x="550.4" y="224" font-size="12.5" font-style="italic" fill="#1f1c14" text-anchor="middle">59</text>
<rect x="547.4" y="229" width="6" height="6" fill="#b5702a"/>
<line x1="550.4" y1="232" x2="550.4" y2="98" stroke="#b5702a" stroke-width="1.3"/>
<text x="550.4" y="93" font-size="11.5" fill="#b5702a" text-anchor="middle">▲ faze-mesice</text>
<rect x="150" y="451" width="9" height="9" fill="#1f1c14"/>
<text x="164" y="460" font-size="11" fill="#6b6253">squares = wheel fixed to its path</text>
<line x1="400" y1="449" x2="400" y2="462" stroke="#6b6253" stroke-width="1.1"/>
<line x1="397" y1="452" x2="397" y2="462" stroke="#6b6253" stroke-width="1"/>
<line x1="403" y1="452" x2="403" y2="462" stroke="#6b6253" stroke-width="1"/>
<line x1="394" y1="455" x2="394" y2="462" stroke="#6b6253" stroke-width="1"/>
<line x1="406" y1="455" x2="406" y2="462" stroke="#6b6253" stroke-width="1"/>
<text x="414" y="460" font-size="11" fill="#6b6253">axis (longest) + shorter tubes → indicators</text>
<text x="150" y="478" font-size="10" fill="#6b6253" font-style="italic">colour = individual path (arbor/tube) · wheel-bar length ∝ pitch diameter (∝ z)</text>
<text x="770.4" y="476" font-size="10" fill="#6b6253" text-anchor="end" font-style="italic">horonotace · layer C</text>
</svg>