<svg viewBox="0 0 812.1 618" xmlns="http://www.w3.org/2000/svg" font-family="Georgia,'Times New Roman',serif" role="img">
<title>Prague Old-Town astronomical dial</title><desc>Schematic gear elevation (horonotace, layer C).</desc>
<rect width="812.1" height="618" fill="#f4eedd"/>
<defs><marker id="ar" markerWidth="9" markerHeight="9" refX="7" refY="3" orient="auto"><path d="M0,0 L7,3 L0,6 z" fill="#33506b"/></marker></defs>
<text x="150" y="44" font-size="21" fill="#1f1c14">Prague Old-Town astronomical dial</text>
<text x="150" y="66" font-size="12" fill="#6b6253">Mikuláš of Kadaň; calc. Jan Šindel (1410). Reconstr. Romuald Božek (1865–66) · 1410 (s…</text>
<rect x="80" y="168" width="254.3" height="280" fill="none" stroke="#1f1c14" stroke-width="2.4"/>
<line x1="80" y1="162" x2="80" y2="454" stroke="#1f1c14" stroke-width="4.5"/>
<circle cx="80" cy="162" r="4" fill="#1f1c14"/>
<line x1="334.3" y1="162" x2="334.3" y2="454" stroke="#1f1c14" stroke-width="4.5"/>
<circle cx="334.3" cy="162" r="4" fill="#1f1c14"/>
<text x="84" y="156" font-size="12" fill="#6b6253" font-style="italic">Frame — birdcage</text>
<line x1="352.3" y1="162" x2="352.3" y2="454" stroke="#6b6253" stroke-width="1" stroke-dasharray="3 4"/>
<text x="469.70000000000005" y="156" font-size="11.5" fill="#6b6253" font-style="italic" text-anchor="middle">on the dial side (outside the frame)</text>
<path d="M124.0,148 L124.0,138 L268.3,138 L268.3,148" fill="none" stroke="#33506b" stroke-width="1.2"/>
<text x="196.15" y="133" font-size="12.5" fill="#33506b" text-anchor="middle">Astrolabe (Sun / Moon / zodiac)</text>
<path d="M316.1,148 L316.1,138 L368.1,138 L368.1,148" fill="none" stroke="#3f7d56" stroke-width="1.2"/>
<text x="342.1" y="133" font-size="12.5" fill="#3f7d56" text-anchor="middle">Moon phase (semi-silvered sphere)</text>
<path d="M466.1,148 L466.1,138 L518.1,138 L518.1,148" fill="none" stroke="#6f7a2a" stroke-width="1.2"/>
<text x="492.1" y="133" font-size="12.5" fill="#6f7a2a" text-anchor="middle">Calendarium (plate, R. Božek)</text>
<line x1="150.0" y1="168" x2="150.0" y2="448" stroke="#33506b" stroke-opacity="0.6" stroke-width="1.2"/>
<line x1="145.5" y1="168" x2="154.5" y2="168" stroke="#1f1c14" stroke-width="1.8"/>
<line x1="145.5" y1="448" x2="154.5" y2="448" stroke="#1f1c14" stroke-width="1.8"/>
<line x1="242.3" y1="448" x2="242.3" y2="90" stroke="#2e5e8c" stroke-width="1.2"/>
<line x1="236.3" y1="448" x2="236.3" y2="105" stroke="#2f7d5a" stroke-width="1.2"/>
<line x1="248.3" y1="448" x2="248.3" y2="105" stroke="#2f7d5a" stroke-width="1.2"/>
<line x1="230.3" y1="448" x2="230.3" y2="120" stroke="#9a5a2e" stroke-width="1.2"/>
<line x1="254.3" y1="448" x2="254.3" y2="120" stroke="#9a5a2e" stroke-width="1.2"/>
<line x1="228.3" y1="168" x2="256.3" y2="168" stroke="#1f1c14" stroke-width="1.8"/>
<line x1="228.3" y1="448" x2="256.3" y2="448" stroke="#1f1c14" stroke-width="1.8"/>
<line x1="342.1" y1="168" x2="342.1" y2="448" stroke="#3f7d56" stroke-opacity="0.6" stroke-width="1.2"/>
<line x1="337.6" y1="168" x2="346.6" y2="168" stroke="#1f1c14" stroke-width="1.8"/>
<line x1="337.6" y1="448" x2="346.6" y2="448" stroke="#1f1c14" stroke-width="1.8"/>
<line x1="492.1" y1="168" x2="492.1" y2="448" stroke="#6f7a2a" stroke-opacity="0.6" stroke-width="1.2"/>
<line x1="487.6" y1="168" x2="496.6" y2="168" stroke="#1f1c14" stroke-width="1.8"/>
<line x1="487.6" y1="448" x2="496.6" y2="448" stroke="#1f1c14" stroke-width="1.8"/>
<path d="M153.9,232 H168.25 V232 H182.60000000000002" fill="none" stroke="#1f1c14" stroke-width="1.4"/>
<line x1="165.25" y1="229.0" x2="171.25" y2="235.0" stroke="#1f1c14" stroke-width="1"/>
<path d="M153.9,232 H168.15 V296 H182.4" fill="none" stroke="#1f1c14" stroke-width="1.4"/>
<line x1="165.15" y1="261.0" x2="171.15" y2="267.0" stroke="#1f1c14" stroke-width="1"/>
<path d="M153.9,232 H167.10000000000002 V360 H180.3" fill="none" stroke="#1f1c14" stroke-width="1.4"/>
<line x1="164.10000000000002" y1="293.0" x2="170.10000000000002" y2="299.0" stroke="#1f1c14" stroke-width="1"/>
<path d="M304.3,360 H318.55 V360 H332.8" fill="none" stroke="#1f1c14" stroke-width="1.4"/>
<line x1="315.55" y1="357.0" x2="321.55" y2="363.0" stroke="#1f1c14" stroke-width="1"/>
<line x1="146.1" y1="232" x2="153.9" y2="232" stroke="#33506b" stroke-width="1.9"/>
<line x1="146.1" y1="227" x2="146.1" y2="237" stroke="#33506b" stroke-width="1.3"/>
<line x1="153.9" y1="227" x2="153.9" y2="237" stroke="#33506b" stroke-width="1.3"/>
<text x="150.0" y="224" font-size="12.5" font-style="italic" fill="#1f1c14" text-anchor="middle">24</text>
<rect x="147.0" y="229" width="6" height="6" fill="#33506b"/>
<line x1="182.60000000000002" y1="232" x2="302.0" y2="232" stroke="#2e5e8c" stroke-width="1.9"/>
<line x1="182.60000000000002" y1="227" x2="182.60000000000002" y2="237" stroke="#2e5e8c" stroke-width="1.3"/>
<line x1="302.0" y1="227" x2="302.0" y2="237" stroke="#2e5e8c" stroke-width="1.3"/>
<text x="242.3" y="224" font-size="12.5" font-style="italic" fill="#1f1c14" text-anchor="middle">365</text>
<rect x="239.3" y="229" width="6" height="6" fill="#2e5e8c"/>
<line x1="182.4" y1="296" x2="302.2" y2="296" stroke="#2f7d5a" stroke-width="1.9"/>
<line x1="182.4" y1="291" x2="182.4" y2="301" stroke="#2f7d5a" stroke-width="1.3"/>
<line x1="302.2" y1="291" x2="302.2" y2="301" stroke="#2f7d5a" stroke-width="1.3"/>
<text x="242.3" y="288" font-size="12.5" font-style="italic" fill="#1f1c14" text-anchor="middle">366</text>
<rect x="233.3" y="293" width="6" height="6" fill="#2f7d5a"/>
<rect x="245.3" y="293" width="6" height="6" fill="#2f7d5a"/>
<line x1="180.3" y1="360" x2="304.3" y2="360" stroke="#9a5a2e" stroke-width="1.9"/>
<line x1="180.3" y1="355" x2="180.3" y2="365" stroke="#9a5a2e" stroke-width="1.3"/>
<line x1="304.3" y1="355" x2="304.3" y2="365" stroke="#9a5a2e" stroke-width="1.3"/>
<text x="242.3" y="352" font-size="12.5" font-style="italic" fill="#1f1c14" text-anchor="middle">379</text>
<rect x="227.3" y="357" width="6" height="6" fill="#9a5a2e"/>
<rect x="251.3" y="357" width="6" height="6" fill="#9a5a2e"/>
<line x1="332.8" y1="360" x2="351.40000000000003" y2="360" stroke="#3f7d56" stroke-width="1.9"/>
<line x1="332.8" y1="355" x2="332.8" y2="365" stroke="#3f7d56" stroke-width="1.3"/>
<line x1="351.40000000000003" y1="355" x2="351.40000000000003" y2="365" stroke="#3f7d56" stroke-width="1.3"/>
<text x="342.1" y="352" font-size="12.5" font-style="italic" fill="#1f1c14" text-anchor="middle">57</text>
<rect x="339.1" y="357" width="6" height="6" fill="#3f7d56"/>
<line x1="432.40000000000003" y1="232" x2="551.8000000000001" y2="232" stroke="#6f7a2a" stroke-width="1.9"/>
<line x1="432.40000000000003" y1="227" x2="432.40000000000003" y2="237" stroke="#6f7a2a" stroke-width="1.3"/>
<line x1="551.8000000000001" y1="227" x2="551.8000000000001" y2="237" stroke="#6f7a2a" stroke-width="1.3"/>
<text x="492.1" y="224" font-size="12.5" font-style="italic" fill="#1f1c14" text-anchor="middle">365</text>
<rect x="489.1" y="229" width="6" height="6" fill="#6f7a2a"/>
<circle cx="242.3" cy="90" r="2.8" fill="#2e5e8c"/>
<line x1="242.3" y1="90" x2="266.3" y2="90" stroke="#2e5e8c" stroke-width="2"/>
<path d="M266.3,87 l6,3 l-6,3 z" fill="#2e5e8c"/>
<text x="276.3" y="93" font-size="10.5" fill="#2e5e8c">zodiac</text>
<circle cx="248.3" cy="105" r="2.8" fill="#2f7d5a"/>
<line x1="248.3" y1="105" x2="272.3" y2="105" stroke="#2f7d5a" stroke-width="2"/>
<path d="M272.3,102 l6,3 l-6,3 z" fill="#2f7d5a"/>
<text x="282.3" y="108" font-size="10.5" fill="#2f7d5a">Sun</text>
<circle cx="254.3" cy="120" r="2.8" fill="#9a5a2e"/>
<line x1="254.3" y1="120" x2="278.3" y2="120" stroke="#9a5a2e" stroke-width="2"/>
<path d="M278.3,117 l6,3 l-6,3 z" fill="#9a5a2e"/>
<text x="288.3" y="123" font-size="10.5" fill="#9a5a2e">Moon</text>
<line x1="342.1" y1="360" x2="342.1" y2="98" stroke="#3f7d56" stroke-width="1.3"/>
<text x="342.1" y="93" font-size="11.5" fill="#3f7d56" text-anchor="middle">▲ Moon phase</text>
<circle cx="492.1" cy="96" r="17" fill="#f4eedd" stroke="#6f7a2a" stroke-width="1.3"/>
<circle cx="492.1" cy="96" r="2" fill="#6f7a2a"/>
<line x1="488.1" y1="232" x2="488.1" y2="113" stroke="#6f7a2a" stroke-width="1.3"/>
<line x1="488.1" y1="113" x2="492.1" y2="96" stroke="#6f7a2a" stroke-opacity="0.7" stroke-width="0.7"/>
<line x1="492.1" y1="96" x2="486.5" y2="82.1" stroke="#6f7a2a" stroke-width="2"/>
<text x="478.7" y="75.8" font-size="11" fill="#6f7a2a" text-anchor="end">calendar</text>
<line x1="496.1" y1="232" x2="496.1" y2="113" stroke="#6f7a2a" stroke-width="1.3"/>
<line x1="496.1" y1="113" x2="492.1" y2="96" stroke="#6f7a2a" stroke-opacity="0.7" stroke-width="0.7"/>
<line x1="492.1" y1="96" x2="497.7" y2="82.1" stroke="#6f7a2a" stroke-width="2"/>
<text x="505.5" y="75.8" font-size="11" fill="#6f7a2a" text-anchor="start">Old Bohemian time</text>
<line x1="88" y1="238" x2="136.0" y2="238" stroke="#705f31" stroke-width="1" stroke-dasharray="4 3"/>
<rect x="10" y="218" width="78" height="40" rx="3" fill="none" stroke="#705f31" stroke-width="1.2" stroke-dasharray="4 3"/>
<text x="49" y="234" font-size="10.5" fill="#705f31" text-anchor="middle">going train</text>
<text x="49" y="248" font-size="9" fill="#6b6253" text-anchor="middle">tooth counts undocumented</text>
<circle cx="553.1" cy="204" r="1.6" fill="#1f1c14"/>
<line x1="553.1" y1="204" x2="569.1" y2="192" stroke="#1f1c14" stroke-width="1.4"/>
<rect x="567.1" y="188" width="7" height="6" fill="#1f1c14"/>
<text x="575.1" y="195" font-size="9" fill="#1f1c14">hammer</text>
<path d="M554.1,244 q0,-14 8,-14 q8,0 8,14 z" fill="none" stroke="#1f1c14" stroke-width="1.4"/>
<line x1="552.1" y1="244" x2="572.1" y2="244" stroke="#1f1c14" stroke-width="1.2"/>
<text x="575.1" y="235" font-size="9" fill="#1f1c14">bell</text>
<rect x="150" y="579" width="9" height="9" fill="#1f1c14"/>
<text x="164" y="588" font-size="11" fill="#6b6253">squares = wheel fixed to its path</text>
<line x1="400" y1="577" x2="400" y2="590" stroke="#6b6253" stroke-width="1.1"/>
<line x1="397" y1="580" x2="397" y2="590" stroke="#6b6253" stroke-width="1"/>
<line x1="403" y1="580" x2="403" y2="590" stroke="#6b6253" stroke-width="1"/>
<line x1="394" y1="583" x2="394" y2="590" stroke="#6b6253" stroke-width="1"/>
<line x1="406" y1="583" x2="406" y2="590" stroke="#6b6253" stroke-width="1"/>
<text x="414" y="588" font-size="11" fill="#6b6253">axis (longest) + shorter tubes → indicators</text>
<text x="150" y="606" font-size="10" fill="#6b6253" font-style="italic">colour = individual path (arbor/tube) · wheel-bar length ∝ pitch diameter (∝ z)</text>
<text x="782.1" y="604" font-size="10" fill="#6b6253" text-anchor="end" font-style="italic">horonotace · layer C</text>
</svg>