<svg viewBox="0 0 940 560" xmlns="http://www.w3.org/2000/svg" font-family="Georgia,'Times New Roman',serif" role="img">
<defs></defs>
<rect width="940" height="560" fill="#f4eedd"/>
<text x="40" y="44" font-size="21" fill="#1f1c14">Staroměstský orloj — astronomický číselník</text>
<text x="40" y="66" font-size="12" fill="#6b6253">Pohled na číselník (vrstva D). Astroláb = stereografická projekce ZE SEV. pólu (Rak vnější, Kozoroh vnitřní); polohy ukazatelů ilustrativní.</text>
<clipPath id="disk"><circle cx="280" cy="300" r="184.0"/></clipPath>
<g clip-path="url(#disk)">
<circle cx="280" cy="300" r="184.0" fill="#bcd3e2"/>
<circle cx="280" cy="401.0" r="157.5" fill="#d2853a" opacity="0.92"/>
<circle cx="280" cy="372.0" r="106.7" fill="#27384f"/>
<circle cx="280" cy="300" r="79.3" fill="none" stroke="#b0863a" stroke-opacity="0.55" stroke-width="0.8"/>
<circle cx="280" cy="300" r="120.8" fill="none" stroke="#b0863a" stroke-opacity="0.55" stroke-width="1.0"/>
<circle cx="280" cy="300" r="184.0" fill="none" stroke="#b0863a" stroke-opacity="0.55" stroke-width="1.2"/>
<circle cx="280" cy="401.0" r="157.5" fill="none" stroke="#b0863a" stroke-width="1.5"/>
<circle cx="280" cy="372.0" r="106.7" fill="none" stroke="#b0863a" stroke-opacity="0.7" stroke-width="1" stroke-dasharray="4 3"/>
</g>
<text x="163" y="294" font-size="9.5" fill="#b0863a" font-style="italic">ortus</text>
<text x="397" y="294" font-size="9.5" fill="#b0863a" text-anchor="end" font-style="italic">occasus</text>
<text x="280" y="199" font-size="9.5" fill="#7d5e26" text-anchor="middle" font-style="italic">dies (den)</text>
<text x="280" y="374" font-size="9" fill="#d2853a" text-anchor="middle" font-style="italic">crepusculum</text>
<text x="280" y="376" font-size="9.5" fill="#9fb0c4" text-anchor="middle" font-style="italic">nox</text>
<circle cx="280" cy="300" r="1.8" fill="#7d5e26"/>
<circle cx="280" cy="247.6" r="131.6" fill="none" stroke="#b0863a" stroke-width="6" stroke-opacity="0.9"/>
<circle cx="280" cy="247.6" r="136.6" fill="none" stroke="#7d5e26" stroke-width="0.8"/>
<circle cx="280" cy="247.6" r="126.6" fill="none" stroke="#7d5e26" stroke-width="0.8"/>
<line x1="395.3" y1="297.6" x2="406.3" y2="302.4" stroke="#7d5e26" stroke-width="0.7"/>
<text x="410.0" y="272.0" font-size="11" fill="#7d5e26" text-anchor="middle">♈</text>
<line x1="404.6" y1="231.6" x2="416.5" y2="230.1" stroke="#7d5e26" stroke-width="0.7"/>
<text x="398.8" y="195.0" font-size="11" fill="#7d5e26" text-anchor="middle">♉</text>
<line x1="367.9" y1="157.9" x2="376.3" y2="149.3" stroke="#7d5e26" stroke-width="0.7"/>
<text x="330.8" y="130.2" font-size="11" fill="#7d5e26" text-anchor="middle">♊</text>
<line x1="280.0" y1="122.0" x2="280.0" y2="110.0" stroke="#7d5e26" stroke-width="0.7"/>
<text x="229.2" y="130.2" font-size="11" fill="#7d5e26" text-anchor="middle">♋</text>
<line x1="192.1" y1="157.9" x2="183.7" y2="149.3" stroke="#7d5e26" stroke-width="0.7"/>
<text x="161.2" y="195.0" font-size="11" fill="#7d5e26" text-anchor="middle">♌</text>
<line x1="155.4" y1="231.6" x2="143.5" y2="230.1" stroke="#7d5e26" stroke-width="0.7"/>
<text x="150.0" y="272.0" font-size="11" fill="#7d5e26" text-anchor="middle">♍</text>
<line x1="164.7" y1="297.6" x2="153.7" y2="302.4" stroke="#7d5e26" stroke-width="0.7"/>
<text x="174.2" y="330.0" font-size="11" fill="#7d5e26" text-anchor="middle">♎</text>
<line x1="196.7" y1="341.7" x2="188.8" y2="350.7" stroke="#7d5e26" stroke-width="0.7"/>
<text x="213.3" y="365.2" font-size="11" fill="#7d5e26" text-anchor="middle">♏</text>
<line x1="237.1" y1="365.7" x2="233.0" y2="377.0" stroke="#7d5e26" stroke-width="0.7"/>
<text x="257.4" y="381.3" font-size="11" fill="#7d5e26" text-anchor="middle">♐</text>
<line x1="280.0" y1="373.3" x2="280.0" y2="385.3" stroke="#7d5e26" stroke-width="0.7"/>
<text x="302.6" y="381.3" font-size="11" fill="#7d5e26" text-anchor="middle">♑</text>
<line x1="322.9" y1="365.7" x2="327.0" y2="377.0" stroke="#7d5e26" stroke-width="0.7"/>
<text x="346.7" y="365.2" font-size="11" fill="#7d5e26" text-anchor="middle">♒</text>
<line x1="363.3" y1="341.7" x2="371.2" y2="350.7" stroke="#7d5e26" stroke-width="0.7"/>
<text x="385.8" y="330.0" font-size="11" fill="#7d5e26" text-anchor="middle">♓</text>
<text x="280.0" y="104.0" font-size="12" fill="#1f1c14" text-anchor="middle">XII</text>
<text x="380.0" y="130.8" font-size="12" fill="#1f1c14" text-anchor="middle">I</text>
<text x="453.2" y="204.0" font-size="12" fill="#1f1c14" text-anchor="middle">II</text>
<text x="480.0" y="304.0" font-size="12" fill="#1f1c14" text-anchor="middle">III</text>
<text x="453.2" y="404.0" font-size="12" fill="#1f1c14" text-anchor="middle">IV</text>
<text x="380.0" y="477.2" font-size="12" fill="#1f1c14" text-anchor="middle">V</text>
<text x="280.0" y="504.0" font-size="12" fill="#1f1c14" text-anchor="middle">VI</text>
<text x="180.0" y="477.2" font-size="12" fill="#1f1c14" text-anchor="middle">VII</text>
<text x="106.8" y="404.0" font-size="12" fill="#1f1c14" text-anchor="middle">VIII</text>
<text x="80.0" y="304.0" font-size="12" fill="#1f1c14" text-anchor="middle">IX</text>
<text x="106.8" y="204.0" font-size="12" fill="#1f1c14" text-anchor="middle">X</text>
<text x="180.0" y="130.8" font-size="12" fill="#1f1c14" text-anchor="middle">XI</text>
<circle cx="280" cy="300" r="210" fill="none" stroke="#7d5e26" stroke-width="0.8"/>
<circle cx="280" cy="300" r="218" fill="none" stroke="#b0863a" stroke-width="9" stroke-opacity="0.85"/>
<line x1="280.0" y1="86.0" x2="280.0" y2="78.0" stroke="#f4eedd" stroke-width="1.1"/>
<line x1="335.4" y1="93.3" x2="337.5" y2="85.6" stroke="#f4eedd" stroke-width="1.1"/>
<line x1="387.0" y1="114.7" x2="391.0" y2="107.7" stroke="#f4eedd" stroke-width="1.1"/>
<line x1="431.3" y1="148.7" x2="437.0" y2="143.0" stroke="#f4eedd" stroke-width="1.1"/>
<line x1="465.3" y1="193.0" x2="472.3" y2="189.0" stroke="#f4eedd" stroke-width="1.1"/>
<line x1="486.7" y1="244.6" x2="494.4" y2="242.5" stroke="#f4eedd" stroke-width="1.1"/>
<line x1="494.0" y1="300.0" x2="502.0" y2="300.0" stroke="#f4eedd" stroke-width="1.1"/>
<line x1="486.7" y1="355.4" x2="494.4" y2="357.5" stroke="#f4eedd" stroke-width="1.1"/>
<line x1="465.3" y1="407.0" x2="472.3" y2="411.0" stroke="#f4eedd" stroke-width="1.1"/>
<line x1="431.3" y1="451.3" x2="437.0" y2="457.0" stroke="#f4eedd" stroke-width="1.1"/>
<line x1="387.0" y1="485.3" x2="391.0" y2="492.3" stroke="#f4eedd" stroke-width="1.1"/>
<line x1="335.4" y1="506.7" x2="337.5" y2="514.4" stroke="#f4eedd" stroke-width="1.1"/>
<line x1="280.0" y1="514.0" x2="280.0" y2="522.0" stroke="#f4eedd" stroke-width="1.1"/>
<line x1="224.6" y1="506.7" x2="222.5" y2="514.4" stroke="#f4eedd" stroke-width="1.1"/>
<line x1="173.0" y1="485.3" x2="169.0" y2="492.3" stroke="#f4eedd" stroke-width="1.1"/>
<line x1="128.7" y1="451.3" x2="123.0" y2="457.0" stroke="#f4eedd" stroke-width="1.1"/>
<line x1="94.7" y1="407.0" x2="87.7" y2="411.0" stroke="#f4eedd" stroke-width="1.1"/>
<line x1="73.3" y1="355.4" x2="65.6" y2="357.5" stroke="#f4eedd" stroke-width="1.1"/>
<line x1="66.0" y1="300.0" x2="58.0" y2="300.0" stroke="#f4eedd" stroke-width="1.1"/>
<line x1="73.3" y1="244.6" x2="65.6" y2="242.5" stroke="#f4eedd" stroke-width="1.1"/>
<line x1="94.7" y1="193.0" x2="87.7" y2="189.0" stroke="#f4eedd" stroke-width="1.1"/>
<line x1="128.7" y1="148.7" x2="123.0" y2="143.0" stroke="#f4eedd" stroke-width="1.1"/>
<line x1="173.0" y1="114.7" x2="169.0" y2="107.7" stroke="#f4eedd" stroke-width="1.1"/>
<line x1="224.6" y1="93.3" x2="222.5" y2="85.6" stroke="#f4eedd" stroke-width="1.1"/>
<text x="280" y="74" font-size="10" fill="#7d5e26" text-anchor="middle" font-style="italic">staročeský čas (otočný prsten)</text>
<line x1="280" y1="300" x2="428.5" y2="148.7" stroke="#b8801f" stroke-width="2.2"/>
<circle cx="394.7" cy="183.1" r="6.5" fill="#d8a32e" stroke="#7d5e26"/>
<line x1="394.7" y1="175.1" x2="394.7" y2="171.1" stroke="#d8a32e" stroke-width="1.2"/>
<line x1="400.4" y1="177.4" x2="403.2" y2="174.6" stroke="#d8a32e" stroke-width="1.2"/>
<line x1="402.7" y1="183.1" x2="406.7" y2="183.1" stroke="#d8a32e" stroke-width="1.2"/>
<line x1="400.4" y1="188.8" x2="403.2" y2="191.6" stroke="#d8a32e" stroke-width="1.2"/>
<line x1="394.7" y1="191.1" x2="394.7" y2="195.1" stroke="#d8a32e" stroke-width="1.2"/>
<line x1="389.1" y1="188.8" x2="386.2" y2="191.6" stroke="#d8a32e" stroke-width="1.2"/>
<line x1="386.7" y1="183.1" x2="382.7" y2="183.1" stroke="#d8a32e" stroke-width="1.2"/>
<line x1="389.1" y1="177.4" x2="386.2" y2="174.6" stroke="#d8a32e" stroke-width="1.2"/>
<text x="442.5" y="137.4" font-size="11" fill="#b8801f" text-anchor="start">Slunce</text>
<line x1="280" y1="300" x2="142.6" y2="461.4" stroke="#7d5e26" stroke-width="2.2"/>
<circle cx="223.4" cy="366.5" r="7.5" fill="#d7d9d4" stroke="#7d5e26"/>
<path d="M223.4,359.0 A7.5 7.5 0 0 0 223.4,374.0 Z" fill="#1f1c14"/>
<text x="129.6" y="479.6" font-size="11" fill="#7d5e26" text-anchor="end">Měsíc</text>
<line x1="280" y1="300" x2="492.0" y2="300.0" stroke="#7d5e26" stroke-width="1.6"/>
<text x="512.0" y="300.0" font-size="10" fill="#7d5e26" text-anchor="end" font-style="italic">jarní bod</text>
<circle cx="280" cy="300" r="4.5" fill="#7d5e26"/>
<circle cx="710" cy="318" r="150" fill="none" stroke="#b0863a" stroke-width="8" stroke-opacity="0.85"/>
<circle cx="710" cy="318" r="138" fill="none" stroke="#7d5e26" stroke-width="0.8"/>
<line x1="710.0" y1="180.0" x2="710.0" y2="168.0" stroke="#7d5e26" stroke-width="0.8"/>
<text x="742.6" y="200.3" font-size="10" fill="#1f1c14" text-anchor="middle">led</text>
<line x1="779.0" y1="198.5" x2="785.0" y2="188.1" stroke="#7d5e26" stroke-width="0.8"/>
<text x="799.1" y="232.9" font-size="10" fill="#1f1c14" text-anchor="middle">úno</text>
<line x1="829.5" y1="249.0" x2="839.9" y2="243.0" stroke="#7d5e26" stroke-width="0.8"/>
<text x="831.7" y="289.4" font-size="10" fill="#1f1c14" text-anchor="middle">bře</text>
<line x1="848.0" y1="318.0" x2="860.0" y2="318.0" stroke="#7d5e26" stroke-width="0.8"/>
<text x="831.7" y="354.6" font-size="10" fill="#1f1c14" text-anchor="middle">dub</text>
<line x1="829.5" y1="387.0" x2="839.9" y2="393.0" stroke="#7d5e26" stroke-width="0.8"/>
<text x="799.1" y="411.1" font-size="10" fill="#1f1c14" text-anchor="middle">kvě</text>
<line x1="779.0" y1="437.5" x2="785.0" y2="447.9" stroke="#7d5e26" stroke-width="0.8"/>
<text x="742.6" y="443.7" font-size="10" fill="#1f1c14" text-anchor="middle">čvn</text>
<line x1="710.0" y1="456.0" x2="710.0" y2="468.0" stroke="#7d5e26" stroke-width="0.8"/>
<text x="677.4" y="443.7" font-size="10" fill="#1f1c14" text-anchor="middle">čvc</text>
<line x1="641.0" y1="437.5" x2="635.0" y2="447.9" stroke="#7d5e26" stroke-width="0.8"/>
<text x="620.9" y="411.1" font-size="10" fill="#1f1c14" text-anchor="middle">srp</text>
<line x1="590.5" y1="387.0" x2="580.1" y2="393.0" stroke="#7d5e26" stroke-width="0.8"/>
<text x="588.3" y="354.6" font-size="10" fill="#1f1c14" text-anchor="middle">zář</text>
<line x1="572.0" y1="318.0" x2="560.0" y2="318.0" stroke="#7d5e26" stroke-width="0.8"/>
<text x="588.3" y="289.4" font-size="10" fill="#1f1c14" text-anchor="middle">říj</text>
<line x1="590.5" y1="249.0" x2="580.1" y2="243.0" stroke="#7d5e26" stroke-width="0.8"/>
<text x="620.9" y="232.9" font-size="10" fill="#1f1c14" text-anchor="middle">lis</text>
<line x1="641.0" y1="198.5" x2="635.0" y2="188.1" stroke="#7d5e26" stroke-width="0.8"/>
<text x="677.4" y="200.3" font-size="10" fill="#1f1c14" text-anchor="middle">pro</text>
<circle cx="710" cy="318" r="106" fill="none" stroke="#7d5e26" stroke-width="0.7"/>
<line x1="710.0" y1="212.0" x2="710.0" y2="218.0" stroke="#7d5e26" stroke-width="0.6"/>
<line x1="763.0" y1="226.2" x2="760.0" y2="231.4" stroke="#7d5e26" stroke-width="0.6"/>
<line x1="801.8" y1="265.0" x2="796.6" y2="268.0" stroke="#7d5e26" stroke-width="0.6"/>
<line x1="816.0" y1="318.0" x2="810.0" y2="318.0" stroke="#7d5e26" stroke-width="0.6"/>
<line x1="801.8" y1="371.0" x2="796.6" y2="368.0" stroke="#7d5e26" stroke-width="0.6"/>
<line x1="763.0" y1="409.8" x2="760.0" y2="404.6" stroke="#7d5e26" stroke-width="0.6"/>
<line x1="710.0" y1="424.0" x2="710.0" y2="418.0" stroke="#7d5e26" stroke-width="0.6"/>
<line x1="657.0" y1="409.8" x2="660.0" y2="404.6" stroke="#7d5e26" stroke-width="0.6"/>
<line x1="618.2" y1="371.0" x2="623.4" y2="368.0" stroke="#7d5e26" stroke-width="0.6"/>
<line x1="604.0" y1="318.0" x2="610.0" y2="318.0" stroke="#7d5e26" stroke-width="0.6"/>
<line x1="618.2" y1="265.0" x2="623.4" y2="268.0" stroke="#7d5e26" stroke-width="0.6"/>
<line x1="657.0" y1="226.2" x2="660.0" y2="231.4" stroke="#7d5e26" stroke-width="0.6"/>
<circle cx="710" cy="318" r="34" fill="#f4eedd" stroke="#7d5e26" stroke-width="1"/>
<path d="M696,306 h28 v14 q0,12 -14,18 q-14,-6 -14,-18 z" fill="none" stroke="#7d5e26" stroke-width="1.2"/>
<rect x="705" y="310" width="10" height="14" fill="none" stroke="#7d5e26" stroke-width="1"/>
<path d="M704,162 h12 l-6,12 z" fill="#d2853a" stroke="#7d5e26" stroke-width="0.8"/>
<text x="710" y="490" font-size="11" fill="#6b6253" text-anchor="middle" font-style="italic">kalendárium — 365 dílů, deska J. Mánes</text>
<text x="910" y="544" font-size="10" fill="#6b6253" text-anchor="end" font-style="italic">horonotace · vrstva D (číselník)</text>
</svg>