<svg viewBox="0 0 1100.0 682" xmlns="http://www.w3.org/2000/svg" font-family="Georgia,'Times New Roman',serif" role="img">
<title>Staroměstský orloj — čtyři strany dle Táborského (1570)</title><desc>Schématická elevace soukolí (horonotace, vrstva C).</desc>
<rect width="1100.0" height="682" fill="#f4eedd"/>
<defs><marker id="ar" markerWidth="9" markerHeight="9" refX="7" refY="3" orient="auto"><path d="M0,0 L7,3 L0,6 z" fill="#33506b"/></marker></defs>
<text x="150" y="44" font-size="21" fill="#1f1c14">Staroměstský orloj — čtyři strany dle Táborského (1570)</text>
<text x="150" y="66" font-size="12" fill="#6b6253">jádro Mikuláš z Kadaně 1410; popis Jan Táborský z Klokotské Hory 1570 · 1410 / stav popsaný…</text>
<rect x="80" y="168" width="792.0" height="344" fill="none" stroke="#1f1c14" stroke-width="2.4"/>
<line x1="80" y1="162" x2="80" y2="518" stroke="#1f1c14" stroke-width="4.5"/>
<circle cx="80" cy="162" r="4" fill="#1f1c14"/>
<line x1="872.0" y1="162" x2="872.0" y2="518" stroke="#1f1c14" stroke-width="4.5"/>
<circle cx="872.0" cy="162" r="4" fill="#1f1c14"/>
<text x="84" y="156" font-size="12" fill="#6b6253" font-style="italic">Rám — klecový</text>
<path d="M124.0,148 L124.0,138 L206.0,138 L206.0,148" fill="none" stroke="#9a3b2e" stroke-width="1.2"/>
<text x="165.0" y="133" font-size="12.5" fill="#9a3b2e" text-anchor="middle">1 · minutní</text>
<path d="M124.0,148 L124.0,138 L806.0,138 L806.0,148" fill="none" stroke="#4a6a8a" stroke-width="1.2"/>
<text x="465.0" y="133" font-size="12.5" fill="#4a6a8a" text-anchor="middle">4 · astronomická</text>
<path d="M154.0,148 L154.0,138 L206.0,138 L206.0,148" fill="none" stroke="#5b4b8a" stroke-width="1.2"/>
<text x="180.0" y="133" font-size="12.5" fill="#5b4b8a" text-anchor="middle">krok</text>
<path d="M454.0,148 L454.0,138 L506.0,138 L506.0,148" fill="none" stroke="#3f7d56" stroke-width="1.2"/>
<text x="480.0" y="133" font-size="12.5" fill="#3f7d56" text-anchor="middle">2 · spouštěcí</text>
<path d="M604.0,148 L604.0,138 L656.0,138 L656.0,148" fill="none" stroke="#8a4b6b" stroke-width="1.2"/>
<text x="630.0" y="133" font-size="12.5" fill="#8a4b6b" text-anchor="middle">3 · bicí (věž)</text>
<line x1="150.0" y1="168" x2="150.0" y2="512" stroke="#9a3b2e" stroke-opacity="0.6" stroke-width="1.2"/>
<line x1="145.5" y1="168" x2="154.5" y2="168" stroke="#1f1c14" stroke-width="1.8"/>
<line x1="145.5" y1="512" x2="154.5" y2="512" stroke="#1f1c14" stroke-width="1.8"/>
<line x1="180.0" y1="168" x2="180.0" y2="512" stroke="#9a3b2e" stroke-opacity="0.6" stroke-width="1.2"/>
<line x1="175.5" y1="168" x2="184.5" y2="168" stroke="#1f1c14" stroke-width="1.8"/>
<line x1="175.5" y1="512" x2="184.5" y2="512" stroke="#1f1c14" stroke-width="1.8"/>
<line x1="330.0" y1="512" x2="330.0" y2="90" stroke="#2e5e8c" stroke-width="1.2"/>
<line x1="324.0" y1="512" x2="324.0" y2="105" stroke="#2f7d5a" stroke-width="1.2"/>
<line x1="336.0" y1="512" x2="336.0" y2="105" stroke="#2f7d5a" stroke-width="1.2"/>
<line x1="318.0" y1="512" x2="318.0" y2="120" stroke="#9a5a2e" stroke-width="1.2"/>
<line x1="342.0" y1="512" x2="342.0" y2="120" stroke="#9a5a2e" stroke-width="1.2"/>
<line x1="316.0" y1="168" x2="344.0" y2="168" stroke="#1f1c14" stroke-width="1.8"/>
<line x1="316.0" y1="512" x2="344.0" y2="512" stroke="#1f1c14" stroke-width="1.8"/>
<line x1="480.0" y1="168" x2="480.0" y2="512" stroke="#3f7d56" stroke-opacity="0.6" stroke-width="1.2"/>
<line x1="475.5" y1="168" x2="484.5" y2="168" stroke="#1f1c14" stroke-width="1.8"/>
<line x1="475.5" y1="512" x2="484.5" y2="512" stroke="#1f1c14" stroke-width="1.8"/>
<line x1="630.0" y1="168" x2="630.0" y2="512" stroke="#8a4b6b" stroke-opacity="0.6" stroke-width="1.2"/>
<line x1="625.5" y1="168" x2="634.5" y2="168" stroke="#1f1c14" stroke-width="1.8"/>
<line x1="625.5" y1="512" x2="634.5" y2="512" stroke="#1f1c14" stroke-width="1.8"/>
<line x1="780.0" y1="168" x2="780.0" y2="512" stroke="#4a6a8a" stroke-opacity="0.6" stroke-width="1.2"/>
<line x1="775.5" y1="168" x2="784.5" y2="168" stroke="#1f1c14" stroke-width="1.8"/>
<line x1="775.5" y1="512" x2="784.5" y2="512" stroke="#1f1c14" stroke-width="1.8"/>
<path d="M160.0,232 H165.0 V232 H170.0" fill="none" stroke="#1f1c14" stroke-width="1.4"/>
<line x1="162.0" y1="229.0" x2="168.0" y2="235.0" stroke="#1f1c14" stroke-width="1"/>
<path d="M160.0,296 H240.0 V296 H320.0" fill="none" stroke="#1f1c14" stroke-width="1.4"/>
<line x1="237.0" y1="293.0" x2="243.0" y2="299.0" stroke="#1f1c14" stroke-width="1"/>
<path d="M160.0,296 H240.0 V360 H320.0" fill="none" stroke="#1f1c14" stroke-width="1.4"/>
<line x1="237.0" y1="325.0" x2="243.0" y2="331.0" stroke="#1f1c14" stroke-width="1"/>
<path d="M160.0,296 H240.0 V424 H320.0" fill="none" stroke="#1f1c14" stroke-width="1.4"/>
<line x1="237.0" y1="357.0" x2="243.0" y2="363.0" stroke="#1f1c14" stroke-width="1"/>
<line x1="140.0" y1="232" x2="160.0" y2="232" stroke="#9a3b2e" stroke-width="1.9"/>
<line x1="140.0" y1="227" x2="140.0" y2="237" stroke="#9a3b2e" stroke-width="1.3"/>
<line x1="160.0" y1="227" x2="160.0" y2="237" stroke="#9a3b2e" stroke-width="1.3"/>
<text x="158.0" y="236" font-size="11" font-style="italic" fill="#6b6253">?</text>
<rect x="147.0" y="229" width="6" height="6" fill="#9a3b2e"/>
<line x1="140.0" y1="296" x2="160.0" y2="296" stroke="#9a3b2e" stroke-width="1.9"/>
<line x1="140.0" y1="291" x2="140.0" y2="301" stroke="#9a3b2e" stroke-width="1.3"/>
<line x1="160.0" y1="291" x2="160.0" y2="301" stroke="#9a3b2e" stroke-width="1.3"/>
<text x="158.0" y="300" font-size="11" font-style="italic" fill="#6b6253">?</text>
<rect x="147.0" y="293" width="6" height="6" fill="#9a3b2e"/>
<line x1="170.0" y1="232" x2="190.0" y2="232" stroke="#9a3b2e" stroke-width="1.9"/>
<line x1="170.0" y1="227" x2="170.0" y2="237" stroke="#9a3b2e" stroke-width="1.3"/>
<line x1="190.0" y1="227" x2="190.0" y2="237" stroke="#9a3b2e" stroke-width="1.3"/>
<text x="188.0" y="236" font-size="11" font-style="italic" fill="#6b6253">?</text>
<rect x="177.0" y="229" width="6" height="6" fill="#9a3b2e"/>
<line x1="170.0" y1="296" x2="190.0" y2="296" stroke="#9a3b2e" stroke-width="1.9"/>
<path d="M170.0,301 L170.0,291 L176.0,295" fill="none" stroke="#9a3b2e" stroke-width="1.4"/>
<path d="M190.0,301 L190.0,291 L184.0,295" fill="none" stroke="#9a3b2e" stroke-width="1.4"/>
<text x="188.0" y="300" font-size="11" font-style="italic" fill="#6b6253">?</text>
<rect x="177.0" y="293" width="6" height="6" fill="#9a3b2e"/>
<text x="198.0" y="299" font-size="10" font-style="italic" fill="#9a3b2e">krok: —</text>
<line x1="320.0" y1="296" x2="340.0" y2="296" stroke="#2e5e8c" stroke-width="1.9"/>
<line x1="320.0" y1="291" x2="320.0" y2="301" stroke="#2e5e8c" stroke-width="1.3"/>
<line x1="340.0" y1="291" x2="340.0" y2="301" stroke="#2e5e8c" stroke-width="1.3"/>
<text x="338.0" y="300" font-size="11" font-style="italic" fill="#6b6253">?</text>
<rect x="327.0" y="293" width="6" height="6" fill="#2e5e8c"/>
<line x1="320.0" y1="360" x2="340.0" y2="360" stroke="#2f7d5a" stroke-width="1.9"/>
<line x1="320.0" y1="355" x2="320.0" y2="365" stroke="#2f7d5a" stroke-width="1.3"/>
<line x1="340.0" y1="355" x2="340.0" y2="365" stroke="#2f7d5a" stroke-width="1.3"/>
<text x="338.0" y="364" font-size="11" font-style="italic" fill="#6b6253">?</text>
<rect x="321.0" y="357" width="6" height="6" fill="#2f7d5a"/>
<rect x="333.0" y="357" width="6" height="6" fill="#2f7d5a"/>
<line x1="320.0" y1="424" x2="340.0" y2="424" stroke="#9a5a2e" stroke-width="1.9"/>
<line x1="320.0" y1="419" x2="320.0" y2="429" stroke="#9a5a2e" stroke-width="1.3"/>
<line x1="340.0" y1="419" x2="340.0" y2="429" stroke="#9a5a2e" stroke-width="1.3"/>
<text x="338.0" y="428" font-size="11" font-style="italic" fill="#6b6253">?</text>
<rect x="315.0" y="421" width="6" height="6" fill="#9a5a2e"/>
<rect x="339.0" y="421" width="6" height="6" fill="#9a5a2e"/>
<line x1="470.0" y1="232" x2="490.0" y2="232" stroke="#3f7d56" stroke-width="1.9"/>
<line x1="470.0" y1="227" x2="470.0" y2="237" stroke="#3f7d56" stroke-width="1.3"/>
<line x1="490.0" y1="227" x2="490.0" y2="237" stroke="#3f7d56" stroke-width="1.3"/>
<text x="488.0" y="236" font-size="11" font-style="italic" fill="#6b6253">?</text>
<rect x="477.0" y="229" width="6" height="6" fill="#3f7d56"/>
<line x1="620.0" y1="232" x2="640.0" y2="232" stroke="#8a4b6b" stroke-width="1.9"/>
<line x1="620.0" y1="227" x2="620.0" y2="237" stroke="#8a4b6b" stroke-width="1.3"/>
<line x1="640.0" y1="227" x2="640.0" y2="237" stroke="#8a4b6b" stroke-width="1.3"/>
<text x="638.0" y="236" font-size="11" font-style="italic" fill="#6b6253">?</text>
<rect x="627.0" y="229" width="6" height="6" fill="#8a4b6b"/>
<line x1="718.0" y1="232" x2="842.0" y2="232" stroke="#4a6a8a" stroke-width="1.9"/>
<line x1="718.0" y1="227" x2="718.0" y2="237" stroke="#4a6a8a" stroke-width="1.3"/>
<line x1="842.0" y1="227" x2="842.0" y2="237" stroke="#4a6a8a" stroke-width="1.3"/>
<text x="780.0" y="224" font-size="12.5" font-style="italic" fill="#1f1c14" text-anchor="middle">365</text>
<rect x="777.0" y="229" width="6" height="6" fill="#4a6a8a"/>
<circle cx="330.0" cy="90" r="2.8" fill="#2e5e8c"/>
<line x1="330.0" y1="90" x2="354.0" y2="90" stroke="#2e5e8c" stroke-width="2"/>
<path d="M354.0,87 l6,3 l-6,3 z" fill="#2e5e8c"/>
<text x="364.0" y="93" font-size="10.5" fill="#2e5e8c">Slunce</text>
<circle cx="336.0" cy="105" r="2.8" fill="#2f7d5a"/>
<line x1="336.0" y1="105" x2="360.0" y2="105" stroke="#2f7d5a" stroke-width="2"/>
<path d="M360.0,102 l6,3 l-6,3 z" fill="#2f7d5a"/>
<text x="370.0" y="108" font-size="10.5" fill="#2f7d5a">Měsíc</text>
<circle cx="342.0" cy="120" r="2.8" fill="#9a5a2e"/>
<line x1="342.0" y1="120" x2="366.0" y2="120" stroke="#9a5a2e" stroke-width="2"/>
<path d="M366.0,117 l6,3 l-6,3 z" fill="#9a5a2e"/>
<text x="376.0" y="123" font-size="10.5" fill="#9a5a2e">zvěrokruh</text>
<line x1="780.0" y1="232" x2="780.0" y2="98" stroke="#4a6a8a" stroke-width="1.3"/>
<text x="780.0" y="93" font-size="11.5" fill="#4a6a8a" text-anchor="middle">▲ svátky (na „předním kole&quot;)</text>
<line x1="480.0" y1="232" x2="480.0" y2="98" stroke="#3f7d56" stroke-width="1.3"/>
<text x="480.0" y="93" font-size="11.5" fill="#3f7d56" text-anchor="middle">▲ zvonec</text>
<line x1="156.0" y1="542" x2="204.0" y2="542" stroke="#1f1c14" stroke-width="1.6"/>
<line x1="180.0" y1="512" x2="180.0" y2="542" stroke="#1f1c14" stroke-width="1.3"/>
<rect x="152.0" y="538" width="8" height="8" fill="#1f1c14"/>
<rect x="200.0" y="538" width="8" height="8" fill="#1f1c14"/>
<text x="210.0" y="546" font-size="11" fill="#6b6253">lihýř</text>
<line x1="150.0" y1="512" x2="150.0" y2="542" stroke="#705f31" stroke-width="1.1"/>
<path d="M140.0,542 h20 l-3,26 h-14 z" fill="none" stroke="#705f31" stroke-width="1.5"/>
<line x1="143.0" y1="548" x2="157.0" y2="548" stroke="#705f31" stroke-width="0.7"/>
<line x1="143.0" y1="553" x2="157.0" y2="553" stroke="#705f31" stroke-width="0.7"/>
<line x1="143.0" y1="558" x2="157.0" y2="558" stroke="#705f31" stroke-width="0.7"/>
<line x1="143.0" y1="563" x2="157.0" y2="563" stroke="#705f31" stroke-width="0.7"/>
<text x="150.0" y="584" font-size="10.5" fill="#705f31" text-anchor="middle">závaží</text>
<line x1="480.0" y1="512" x2="480.0" y2="542" stroke="#705f31" stroke-width="1.1"/>
<path d="M470.0,542 h20 l-3,26 h-14 z" fill="none" stroke="#705f31" stroke-width="1.5"/>
<line x1="473.0" y1="548" x2="487.0" y2="548" stroke="#705f31" stroke-width="0.7"/>
<line x1="473.0" y1="553" x2="487.0" y2="553" stroke="#705f31" stroke-width="0.7"/>
<line x1="473.0" y1="558" x2="487.0" y2="558" stroke="#705f31" stroke-width="0.7"/>
<line x1="473.0" y1="563" x2="487.0" y2="563" stroke="#705f31" stroke-width="0.7"/>
<text x="480.0" y="584" font-size="10.5" fill="#705f31" text-anchor="middle">závaží</text>
<line x1="630.0" y1="512" x2="630.0" y2="542" stroke="#705f31" stroke-width="1.1"/>
<path d="M620.0,542 h20 l-3,26 h-14 z" fill="none" stroke="#705f31" stroke-width="1.5"/>
<line x1="623.0" y1="548" x2="637.0" y2="548" stroke="#705f31" stroke-width="0.7"/>
<line x1="623.0" y1="553" x2="637.0" y2="553" stroke="#705f31" stroke-width="0.7"/>
<line x1="623.0" y1="558" x2="637.0" y2="558" stroke="#705f31" stroke-width="0.7"/>
<line x1="623.0" y1="563" x2="637.0" y2="563" stroke="#705f31" stroke-width="0.7"/>
<text x="630.0" y="584" font-size="10.5" fill="#705f31" text-anchor="middle">závaží</text>
<path d="M842.0,204 q0,-14 8,-14 q8,0 8,14 z" fill="none" stroke="#1f1c14" stroke-width="1.4"/>
<line x1="840.0" y1="204" x2="860.0" y2="204" stroke="#1f1c14" stroke-width="1.2"/>
<text x="863.0" y="195" font-size="9" fill="#1f1c14">cimbál</text>
<circle cx="633.0" cy="204" r="1.6" fill="#1f1c14"/>
<line x1="633.0" y1="204" x2="649.0" y2="192" stroke="#1f1c14" stroke-width="1.4"/>
<rect x="647.0" y="188" width="7" height="6" fill="#1f1c14"/>
<text x="655.0" y="195" font-size="9" fill="#1f1c14">kladivo</text>
<path d="M646.0,170 q0,-14 8,-14 q8,0 8,14 z" fill="none" stroke="#1f1c14" stroke-width="1.4"/>
<line x1="644.0" y1="170" x2="664.0" y2="170" stroke="#1f1c14" stroke-width="1.2"/>
<text x="667.0" y="161" font-size="9" fill="#1f1c14">cimbál</text>
<path d="M150.0,232 L780.0,232" fill="none" stroke="#9a3b2e" stroke-width="1.2" stroke-dasharray="5 3"/>
<path d="M150.0,232 L480.0,232" fill="none" stroke="#9a3b2e" stroke-width="1.2" stroke-dasharray="5 3"/>
<path d="M480.0,232 L480.0,232" fill="none" stroke="#9a3b2e" stroke-width="1.2" stroke-dasharray="5 3"/>
<path d="M480.0,232 L630.0,232" fill="none" stroke="#9a3b2e" stroke-width="1.2" stroke-dasharray="5 3"/>
<path d="M630.0,232 L642.0,198" fill="none" stroke="#9a3b2e" stroke-width="1.2" stroke-dasharray="5 3"/>
<path d="M642.0,198 L654.0,164" fill="none" stroke="#9a3b2e" stroke-width="1.2" stroke-dasharray="5 3"/>
<rect x="150" y="643" width="9" height="9" fill="#1f1c14"/>
<text x="164" y="652" font-size="11" fill="#6b6253">klíny = kolo spojené se svou dráhou</text>
<line x1="400" y1="641" x2="400" y2="654" stroke="#6b6253" stroke-width="1.1"/>
<line x1="397" y1="644" x2="397" y2="654" stroke="#6b6253" stroke-width="1"/>
<line x1="403" y1="644" x2="403" y2="654" stroke="#6b6253" stroke-width="1"/>
<line x1="394" y1="647" x2="394" y2="654" stroke="#6b6253" stroke-width="1"/>
<line x1="406" y1="647" x2="406" y2="654" stroke="#6b6253" stroke-width="1"/>
<text x="414" y="652" font-size="11" fill="#6b6253">osa (nejdelší) + kratší trubky → ukazatele</text>
<text x="150" y="670" font-size="10" fill="#6b6253" font-style="italic">barva = jednotlivá dráha (osa/trubka) · délka úsečky kola ∝ roztečnému průměru (∝ z)</text>
<text x="1070.0" y="668" font-size="10" fill="#6b6253" text-anchor="end" font-style="italic">horonotace · vrstva C</text>
</svg>