<svg viewBox="0 0 600 664.6" xmlns="http://www.w3.org/2000/svg" font-family="Georgia,'Times New Roman',serif">
<rect width="600" height="664.6" fill="#f4eedd"/>
<text x="40" y="40" font-size="17" fill="#1f1c14">Staroměstský orloj — čtyři strany dle Táborského (1570) <tspan font-size="12" fill="#8a8170">— front view</tspan></text>
<text x="40" y="58" font-size="11" fill="#8a8170">wheels = pitch circles (⌀ ∝ teeth) · mesh = circles touching · mode: schematic (from tooth counts)</text>
<line x1="49.0" y1="126.3" x2="65.4" y2="133.6" stroke="#8a8170" stroke-width="0.6" stroke-dasharray="2 3"/>
<circle cx="57.2" cy="130.0" r="2.4" fill="none" stroke="#9a3b2e" stroke-width="1.1"/>
<line x1="49.0" y1="126.3" x2="65.4" y2="119.0" stroke="#8a8170" stroke-width="0.6" stroke-dasharray="2 3"/>
<circle cx="57.2" cy="122.6" r="2.4" fill="none" stroke="#9a3b2e" stroke-width="1.1"/>
<circle cx="49.0" cy="126.3" r="9.0" fill="none" stroke="#9a3b2e" stroke-width="1.4"/>
<circle cx="49.0" cy="126.3" r="9.0" fill="#4a6a8a" fill-opacity="0.18" stroke="#4a6a8a" stroke-width="1.3"/>
<circle cx="49.0" cy="126.3" r="2.2" fill="#1f1c14"/>
<circle cx="65.4" cy="133.6" r="9.0" fill="none" stroke="#9a3b2e" stroke-width="1.4"/>
<circle cx="65.4" cy="133.6" r="9.0" fill="none" stroke="#5b4b8a" stroke-width="1.5"/>
<path d="M74.4,133.6 L78.3,134.9 L74.1,135.9" fill="none" stroke="#5b4b8a" stroke-width="0.7"/>
<path d="M74.1,135.9 L77.6,138.2 L73.2,138.1" fill="none" stroke="#5b4b8a" stroke-width="0.7"/>
<path d="M73.2,138.1 L76.0,141.2 L71.8,140.0" fill="none" stroke="#5b4b8a" stroke-width="0.7"/>
<path d="M71.8,140.0 L73.6,143.7 L69.9,141.4" fill="none" stroke="#5b4b8a" stroke-width="0.7"/>
<path d="M69.9,141.4 L70.7,145.5 L67.7,142.3" fill="none" stroke="#5b4b8a" stroke-width="0.7"/>
<path d="M67.7,142.3 L67.5,146.4 L65.4,142.6" fill="none" stroke="#5b4b8a" stroke-width="0.7"/>
<path d="M65.4,142.6 L64.1,146.5 L63.1,142.3" fill="none" stroke="#5b4b8a" stroke-width="0.7"/>
<path d="M63.1,142.3 L60.8,145.8 L60.9,141.4" fill="none" stroke="#5b4b8a" stroke-width="0.7"/>
<path d="M60.9,141.4 L57.8,144.2 L59.0,140.0" fill="none" stroke="#5b4b8a" stroke-width="0.7"/>
<path d="M59.0,140.0 L55.3,141.8 L57.6,138.1" fill="none" stroke="#5b4b8a" stroke-width="0.7"/>
<path d="M57.6,138.1 L53.5,138.9 L56.7,135.9" fill="none" stroke="#5b4b8a" stroke-width="0.7"/>
<path d="M56.7,135.9 L52.6,135.7 L56.4,133.6" fill="none" stroke="#5b4b8a" stroke-width="0.7"/>
<path d="M56.4,133.6 L52.5,132.3 L56.7,131.3" fill="none" stroke="#5b4b8a" stroke-width="0.7"/>
<path d="M56.7,131.3 L53.2,129.0 L57.6,129.1" fill="none" stroke="#5b4b8a" stroke-width="0.7"/>
<path d="M57.6,129.1 L54.8,126.0 L59.0,127.2" fill="none" stroke="#5b4b8a" stroke-width="0.7"/>
<path d="M59.0,127.2 L57.2,123.5 L60.9,125.8" fill="none" stroke="#5b4b8a" stroke-width="0.7"/>
<path d="M60.9,125.8 L60.1,121.7 L63.1,124.9" fill="none" stroke="#5b4b8a" stroke-width="0.7"/>
<path d="M63.1,124.9 L63.3,120.8 L65.4,124.6" fill="none" stroke="#5b4b8a" stroke-width="0.7"/>
<path d="M65.4,124.6 L66.7,120.7 L67.7,124.9" fill="none" stroke="#5b4b8a" stroke-width="0.7"/>
<path d="M67.7,124.9 L70.0,121.4 L69.9,125.8" fill="none" stroke="#5b4b8a" stroke-width="0.7"/>
<path d="M69.9,125.8 L73.0,123.0 L71.8,127.2" fill="none" stroke="#5b4b8a" stroke-width="0.7"/>
<path d="M71.8,127.2 L75.5,125.4 L73.2,129.1" fill="none" stroke="#5b4b8a" stroke-width="0.7"/>
<path d="M73.2,129.1 L77.3,128.3 L74.1,131.3" fill="none" stroke="#5b4b8a" stroke-width="0.7"/>
<path d="M74.1,131.3 L78.2,131.5 L74.4,133.6" fill="none" stroke="#5b4b8a" stroke-width="0.7"/>
<circle cx="65.4" cy="133.6" r="2.2" fill="#1f1c14"/>
<circle cx="65.4" cy="119.0" r="9.0" fill="none" stroke="#4a6a8a" stroke-width="1.4"/>
<circle cx="65.4" cy="119.0" r="9.0" fill="none" stroke="#4a6a8a" stroke-width="1.4"/>
<circle cx="65.4" cy="119.0" r="9.0" fill="none" stroke="#4a6a8a" stroke-width="1.4"/>
<circle cx="65.4" cy="119.0" r="2.2" fill="#1f1c14"/>
<circle cx="49.0" cy="211.6" r="9.0" fill="none" stroke="#3f7d56" stroke-width="1.4"/>
<circle cx="49.0" cy="211.6" r="2.2" fill="#1f1c14"/>
<circle cx="49.0" cy="289.6" r="9.0" fill="none" stroke="#8a4b6b" stroke-width="1.4"/>
<circle cx="49.0" cy="289.6" r="2.2" fill="#1f1c14"/>
<circle cx="158.0" cy="476.6" r="118.0" fill="none" stroke="#4a6a8a" stroke-width="1.4"/>
<text x="158.0" y="354.6" font-size="11" fill="#4a6a8a" text-anchor="middle">365</text>
<circle cx="158.0" cy="476.6" r="2.2" fill="#1f1c14"/>
<circle cx="45" cy="644.6" r="5" fill="none" stroke="#9a3b2e" stroke-width="1.4"/>
<text x="55" y="648.6" font-size="10" fill="#8a8170">1 · minutní</text>
<circle cx="155" cy="644.6" r="5" fill="none" stroke="#5b4b8a" stroke-width="1.4"/>
<text x="165" y="648.6" font-size="10" fill="#8a8170">krok</text>
<circle cx="216" cy="644.6" r="5" fill="none" stroke="#3f7d56" stroke-width="1.4"/>
<text x="226" y="648.6" font-size="10" fill="#8a8170">2 · spouštěcí</text>
<circle cx="340" cy="644.6" r="5" fill="none" stroke="#8a4b6b" stroke-width="1.4"/>
<text x="350" y="648.6" font-size="10" fill="#8a8170">3 · bicí (věž)</text>
<circle cx="471" cy="644.6" r="5" fill="none" stroke="#4a6a8a" stroke-width="1.4"/>
<text x="481" y="648.6" font-size="10" fill="#8a8170">4 · astronomická</text>
<text x="560" y="40" font-size="10" fill="#8a8170" text-anchor="end" font-style="italic">horonotace · layer E</text>
</svg>