<svg viewBox="0 0 600 703.3" xmlns="http://www.w3.org/2000/svg" font-family="Georgia,'Times New Roman',serif">
<rect width="600" height="703.3" fill="#f4eedd"/>
<text x="40" y="40" font-size="17" fill="#1f1c14">Prague Old-Town astronomical dial <tspan font-size="12" fill="#8a8170">— front view</tspan></text>
<text x="40" y="58" font-size="11" fill="#8a8170">wheels = pitch circles (⌀ ∝ teeth) · mesh = circles touching · mode: schematic (from tooth counts)</text>
<line x1="47.5" y1="178.7" x2="158.1" y2="228.0" stroke="#8a8170" stroke-width="0.6" stroke-dasharray="2 3"/>
<circle cx="54.3" cy="181.7" r="2.4" fill="none" stroke="#9a3b2e" stroke-width="1.1"/>
<line x1="158.1" y1="228.0" x2="282.1" y2="172.8" stroke="#8a8170" stroke-width="0.6" stroke-dasharray="2 3"/>
<circle cx="265.9" cy="180.0" r="2.4" fill="none" stroke="#9a3b2e" stroke-width="1.1"/>
<circle cx="47.5" cy="178.7" r="7.5" fill="#33506b" fill-opacity="0.18" stroke="#33506b" stroke-width="1.3"/>
<text x="47.5" y="167.2" font-size="11" fill="#33506b" text-anchor="middle">24</text>
<circle cx="47.5" cy="178.7" r="2.2" fill="#1f1c14"/>
<circle cx="158.1" cy="228.0" r="118.0" fill="none" stroke="#33506b" stroke-width="1.4"/>
<circle cx="158.1" cy="228.0" r="114.0" fill="none" stroke="#33506b" stroke-width="1.4"/>
<circle cx="158.1" cy="228.0" r="113.6" fill="none" stroke="#33506b" stroke-width="1.4"/>
<text x="158.1" y="106.0" font-size="11" fill="#33506b" text-anchor="middle">379</text>
<text x="164.1" y="231.0" font-size="9" fill="#33506b">365</text>
<text x="164.1" y="242.0" font-size="9" fill="#33506b">366</text>
<circle cx="158.1" cy="228.0" r="2.2" fill="#1f1c14"/>
<circle cx="282.1" cy="172.8" r="17.7" fill="none" stroke="#3f7d56" stroke-width="1.4"/>
<text x="282.1" y="151.1" font-size="11" fill="#3f7d56" text-anchor="middle">57</text>
<circle cx="282.1" cy="172.8" r="2.2" fill="#1f1c14"/>
<circle cx="153.6" cy="519.6" r="113.6" fill="none" stroke="#6f7a2a" stroke-width="1.4"/>
<text x="153.6" y="402.0" font-size="11" fill="#6f7a2a" text-anchor="middle">365</text>
<circle cx="153.6" cy="519.6" r="2.2" fill="#1f1c14"/>
<circle cx="45" cy="683.3" r="5" fill="none" stroke="#33506b" stroke-width="1.4"/>
<text x="55" y="687.3" font-size="10" fill="#8a8170">Astrolabe (Sun / Moon / zodiac)</text>
<circle cx="337" cy="683.3" r="5" fill="none" stroke="#3f7d56" stroke-width="1.4"/>
<text x="347" y="687.3" font-size="10" fill="#8a8170">Moon phase (semi-silvered sphere)</text>
<circle cx="601" cy="683.3" r="5" fill="none" stroke="#6f7a2a" stroke-width="1.4"/>
<text x="611" y="687.3" font-size="10" fill="#8a8170">Calendarium (plate, R. Božek)</text>
<text x="560" y="40" font-size="10" fill="#8a8170" text-anchor="end" font-style="italic">horonotace · layer E</text>
</svg>