<svg viewBox="0 0 1052 1878" xmlns="http://www.w3.org/2000/svg" font-family="Georgia,'Times New Roman',serif" role="img">
<rect width="1052" height="1878" fill="#f4eedd"/>
<text x="40" y="48" font-size="22" fill="#1f1c14">Horonotace — list symbolů (vrstva C)</text>
<text x="40" y="72" font-size="12" fill="#6b6253">Schematické značky komponent. Slug = hodnota pole typ; termín dle glosáře horologicka-terminologie.</text>
<text x="40" y="120" font-size="14" fill="#9a3b2e">Pohon</text>
<line x1="40" y1="126" x2="1012" y2="126" stroke="#9a3b2e" stroke-opacity="0.4" stroke-width="0.8"/>
<path d="M95,156 h18 l-3,24 h-12 z" fill="none" stroke="#705f31" stroke-width="1.6"/>
<line x1="98" y1="162" x2="110" y2="162" stroke="#705f31" stroke-width="0.7"/>
<line x1="98" y1="168" x2="110" y2="168" stroke="#705f31" stroke-width="0.7"/>
<line x1="98" y1="174" x2="110" y2="174" stroke="#705f31" stroke-width="0.7"/>
<text x="104" y="204" font-size="11" fill="#1f1c14" text-anchor="middle" font-family="monospace">zavazi</text>
<text x="104" y="220" font-size="11" fill="#6b6253" text-anchor="middle">závaží</text>
<rect x="336" y="159" width="32" height="18" rx="2.5" fill="none" stroke="#705f31" stroke-width="1.6"/>
<line x1="340" y1="159" x2="340" y2="177" stroke="#705f31" stroke-opacity="0.55" stroke-width="0.7"/>
<line x1="346" y1="159" x2="346" y2="177" stroke="#705f31" stroke-opacity="0.55" stroke-width="0.7"/>
<line x1="352" y1="159" x2="352" y2="177" stroke="#705f31" stroke-opacity="0.55" stroke-width="0.7"/>
<line x1="358" y1="159" x2="358" y2="177" stroke="#705f31" stroke-opacity="0.55" stroke-width="0.7"/>
<line x1="364" y1="159" x2="364" y2="177" stroke="#705f31" stroke-opacity="0.55" stroke-width="0.7"/>
<line x1="370" y1="159" x2="370" y2="177" stroke="#705f31" stroke-opacity="0.55" stroke-width="0.7"/>
<text x="352" y="204" font-size="11" fill="#1f1c14" text-anchor="middle" font-family="monospace">buben</text>
<text x="352" y="220" font-size="11" fill="#6b6253" text-anchor="middle">lanový buben</text>
<circle cx="600" cy="168" r="15" fill="none" stroke="#705f31" stroke-width="1.6"/>
<polyline points="602.0,168.0 602.1,168.8 601.9,169.6 601.4,170.4 600.6,170.9 599.5,171.2 598.3,171.1 597.2,170.5 596.3,169.5 595.8,168.1 595.7,166.6 596.2,165.1 597.3,163.8 598.9,162.9 600.7,162.5 602.6,162.9 604.4,163.9 605.7,165.5 606.5,167.6 606.5,169.9 605.7,172.1 604.1,174.0 601.9,175.3 599.3,175.7 596.6,175.2 594.2,173.8 592.3,171.6 591.3,168.8 591.3,165.8 592.3,162.8 594.4,160.3 597.3,158.6 600.6,158.0 604.1,158.6 607.2,160.3 609.6,163.1 610.9,166.6 611.0,170.5 609.7,174.2 607.2,177.3 603.7,179.4" fill="none" stroke="#705f31" stroke-width="1.0"/>
<text x="600" y="204" font-size="11" fill="#1f1c14" text-anchor="middle" font-family="monospace">perovnik</text>
<text x="600" y="220" font-size="11" fill="#6b6253" text-anchor="middle">perovník</text>
<polyline points="849.0,168.0 849.2,168.5 849.2,169.2 848.7,169.9 847.8,170.4 846.8,170.5 845.6,170.0 844.7,169.0 844.2,167.5 844.4,165.9 845.4,164.4 846.9,163.3 849.0,162.9 851.1,163.4 853.0,164.8 854.2,167.0 854.4,169.6 853.5,172.3 851.5,174.4 848.7,175.6 845.5,175.6 842.5,174.3 840.1,171.7 839.0,168.3 839.3,164.5 841.1,161.1 844.3,158.6 848.3,157.6 852.6,158.2 856.4,160.6 858.9,164.4 859.8,169.1 858.7,173.9 855.7,177.9 851.2,180.5 845.9,181.1 840.7,179.5 836.5,175.8 834.0,170.7 833.7,164.8 835.9,159.2" fill="none" stroke="#705f31" stroke-width="1.2"/>
<text x="848" y="204" font-size="11" fill="#1f1c14" text-anchor="middle" font-family="monospace">pero</text>
<text x="848" y="220" font-size="11" fill="#6b6253" text-anchor="middle">péro tažné</text>
<path d="M92,286 L97,258 L111,258 L116,286 z" fill="none" stroke="#705f31" stroke-width="1.6"/>
<line x1="95.0" y1="261" x2="113.0" y2="264" stroke="#705f31" stroke-width="0.7"/>
<line x1="95.7" y1="267" x2="112.3" y2="270" stroke="#705f31" stroke-width="0.7"/>
<line x1="96.4" y1="273" x2="111.6" y2="276" stroke="#705f31" stroke-width="0.7"/>
<line x1="97.1" y1="279" x2="110.9" y2="282" stroke="#705f31" stroke-width="0.7"/>
<line x1="97.8" y1="285" x2="110.2" y2="288" stroke="#705f31" stroke-width="0.7"/>
<text x="104" y="308" font-size="11" fill="#1f1c14" text-anchor="middle" font-family="monospace">snek</text>
<text x="104" y="324" font-size="11" fill="#6b6253" text-anchor="middle">závitek / šnek</text>
<ellipse cx="352" cy="259" rx="3" ry="4.5" fill="none" stroke="#705f31" stroke-width="1.1"/>
<ellipse cx="352" cy="267" rx="3" ry="4.5" fill="none" stroke="#705f31" stroke-width="1.1"/>
<ellipse cx="352" cy="275" rx="3" ry="4.5" fill="none" stroke="#705f31" stroke-width="1.1"/>
<ellipse cx="352" cy="283" rx="3" ry="4.5" fill="none" stroke="#705f31" stroke-width="1.1"/>
<text x="352" y="308" font-size="11" fill="#1f1c14" text-anchor="middle" font-family="monospace">retizek-snekovy</text>
<text x="352" y="324" font-size="11" fill="#6b6253" text-anchor="middle">řetízek šnekový</text>
<circle cx="600" cy="272" r="13" fill="none" stroke="#1f1c14" stroke-width="1.3"/>
<path d="M600.0,259.0 L604.1,255.5 L606.5,260.7" fill="none" stroke="#1f1c14" stroke-width="1.1"/>
<path d="M606.5,260.7 L611.8,259.8 L611.3,265.5" fill="none" stroke="#1f1c14" stroke-width="1.1"/>
<path d="M611.3,265.5 L616.3,267.3 L613.0,272.0" fill="none" stroke="#1f1c14" stroke-width="1.1"/>
<path d="M613.0,272.0 L616.5,276.1 L611.3,278.5" fill="none" stroke="#1f1c14" stroke-width="1.1"/>
<path d="M611.3,278.5 L612.2,283.8 L606.5,283.3" fill="none" stroke="#1f1c14" stroke-width="1.1"/>
<path d="M606.5,283.3 L604.7,288.3 L600.0,285.0" fill="none" stroke="#1f1c14" stroke-width="1.1"/>
<path d="M600.0,285.0 L595.9,288.5 L593.5,283.3" fill="none" stroke="#1f1c14" stroke-width="1.1"/>
<path d="M593.5,283.3 L588.2,284.2 L588.7,278.5" fill="none" stroke="#1f1c14" stroke-width="1.1"/>
<path d="M588.7,278.5 L583.7,276.7 L587.0,272.0" fill="none" stroke="#1f1c14" stroke-width="1.1"/>
<path d="M587.0,272.0 L583.5,267.9 L588.7,265.5" fill="none" stroke="#1f1c14" stroke-width="1.1"/>
<path d="M588.7,265.5 L587.8,260.2 L593.5,260.7" fill="none" stroke="#1f1c14" stroke-width="1.1"/>
<path d="M593.5,260.7 L595.3,255.7 L600.0,259.0" fill="none" stroke="#1f1c14" stroke-width="1.1"/>
<circle cx="600" cy="272" r="2" fill="#1f1c14"/>
<text x="600" y="308" font-size="11" fill="#1f1c14" text-anchor="middle" font-family="monospace">rohatka</text>
<text x="600" y="324" font-size="11" fill="#6b6253" text-anchor="middle">rohatka</text>
<circle cx="836" cy="264" r="2" fill="#1f1c14"/>
<path d="M836,264 L856,276 l-3,-6" fill="none" stroke="#1f1c14" stroke-width="1.4"/>
<text x="848" y="308" font-size="11" fill="#1f1c14" text-anchor="middle" font-family="monospace">zapadka</text>
<text x="848" y="324" font-size="11" fill="#6b6253" text-anchor="middle">západka</text>
<rect x="91" y="372" width="8" height="8" fill="none" stroke="#1f1c14" stroke-width="1.3" transform="rotate(45 95 376)"/>
<path d="M95,376 L114,376 L114,363" fill="none" stroke="#1f1c14" stroke-width="1.7"/>
<circle cx="114" cy="361" r="3" fill="#1f1c14"/>
<text x="104" y="412" font-size="11" fill="#1f1c14" text-anchor="middle" font-family="monospace">klika</text>
<text x="104" y="428" font-size="11" fill="#6b6253" text-anchor="middle">natahovací klika</text>
<line x1="337" y1="376" x2="356" y2="376" stroke="#1f1c14" stroke-width="1.6"/>
<rect x="356" y="370" width="12" height="12" fill="none" stroke="#1f1c14" stroke-width="1.4" transform="rotate(45 362 376)"/>
<text x="352" y="412" font-size="11" fill="#1f1c14" text-anchor="middle" font-family="monospace">natahovaci-ctyrhran</text>
<text x="352" y="428" font-size="11" fill="#6b6253" text-anchor="middle">natahovací čtyřhran</text>
<rect x="587" y="371" width="10" height="10" fill="none" stroke="#1f1c14" stroke-width="1.4"/>
<line x1="597" y1="376" x2="609" y2="376" stroke="#1f1c14" stroke-width="1.6"/>
<ellipse cx="614" cy="376" rx="5" ry="7" fill="none" stroke="#1f1c14" stroke-width="1.4"/>
<text x="600" y="412" font-size="11" fill="#1f1c14" text-anchor="middle" font-family="monospace">klicek</text>
<text x="600" y="428" font-size="11" fill="#6b6253" text-anchor="middle">natahovací klíček</text>
<text x="40" y="472" font-size="14" fill="#9a3b2e">Soukolí</text>
<line x1="40" y1="478" x2="1012" y2="478" stroke="#9a3b2e" stroke-opacity="0.4" stroke-width="0.8"/>
<line x1="87" y1="520" x2="121" y2="520" stroke="#1f1c14" stroke-width="1.9"/>
<line x1="87" y1="515" x2="87" y2="525" stroke="#1f1c14" stroke-width="1.3"/>
<line x1="121" y1="515" x2="121" y2="525" stroke="#1f1c14" stroke-width="1.3"/>
<rect x="101" y="517" width="6" height="6" fill="#1f1c14"/>
<text x="104" y="556" font-size="11" fill="#1f1c14" text-anchor="middle" font-family="monospace">kolo</text>
<text x="104" y="572" font-size="11" fill="#6b6253" text-anchor="middle">ozubené kolo</text>
<line x1="345" y1="520" x2="359" y2="520" stroke="#1f1c14" stroke-width="1.9"/>
<line x1="345" y1="515" x2="345" y2="525" stroke="#1f1c14" stroke-width="1.3"/>
<line x1="359" y1="515" x2="359" y2="525" stroke="#1f1c14" stroke-width="1.3"/>
<rect x="349" y="517" width="6" height="6" fill="#1f1c14"/>
<text x="352" y="556" font-size="11" fill="#1f1c14" text-anchor="middle" font-family="monospace">pastorek</text>
<text x="352" y="572" font-size="11" fill="#6b6253" text-anchor="middle">pastorek</text>
<line x1="594" y1="509" x2="594" y2="531" stroke="#1f1c14" stroke-width="1.3"/>
<line x1="606" y1="509" x2="606" y2="531" stroke="#1f1c14" stroke-width="1.3"/>
<line x1="594" y1="511" x2="606" y2="511" stroke="#1f1c14" stroke-width="0.9"/>
<line x1="594" y1="517" x2="606" y2="517" stroke="#1f1c14" stroke-width="0.9"/>
<line x1="594" y1="523" x2="606" y2="523" stroke="#1f1c14" stroke-width="0.9"/>
<line x1="594" y1="529" x2="606" y2="529" stroke="#1f1c14" stroke-width="0.9"/>
<text x="600" y="556" font-size="11" fill="#1f1c14" text-anchor="middle" font-family="monospace">cevkovy-pastorek</text>
<text x="600" y="572" font-size="11" fill="#6b6253" text-anchor="middle">cévkový pastorek</text>
<text x="40" y="616" font-size="14" fill="#9a3b2e">Krokové kolo</text>
<line x1="40" y1="622" x2="1012" y2="622" stroke="#9a3b2e" stroke-opacity="0.4" stroke-width="0.8"/>
<circle cx="104" cy="664" r="12" fill="none" stroke="#1f1c14" stroke-width="1.2"/>
<line x1="104.0" y1="652.0" x2="101.6" y2="647.2" stroke="#1f1c14" stroke-width="1"/>
<line x1="108.9" y1="653.0" x2="108.7" y2="647.7" stroke="#1f1c14" stroke-width="1"/>
<line x1="112.9" y1="656.0" x2="114.9" y2="651.0" stroke="#1f1c14" stroke-width="1"/>
<line x1="115.4" y1="660.3" x2="119.3" y2="656.5" stroke="#1f1c14" stroke-width="1"/>
<line x1="115.9" y1="665.3" x2="121.0" y2="663.4" stroke="#1f1c14" stroke-width="1"/>
<line x1="114.4" y1="670.0" x2="119.8" y2="670.4" stroke="#1f1c14" stroke-width="1"/>
<line x1="111.1" y1="673.7" x2="115.8" y2="676.2" stroke="#1f1c14" stroke-width="1"/>
<line x1="106.5" y1="675.7" x2="109.8" y2="680.0" stroke="#1f1c14" stroke-width="1"/>
<line x1="101.5" y1="675.7" x2="102.8" y2="681.0" stroke="#1f1c14" stroke-width="1"/>
<line x1="96.9" y1="673.7" x2="96.0" y2="679.0" stroke="#1f1c14" stroke-width="1"/>
<line x1="93.6" y1="670.0" x2="90.6" y2="674.5" stroke="#1f1c14" stroke-width="1"/>
<line x1="92.1" y1="665.3" x2="87.5" y2="668.1" stroke="#1f1c14" stroke-width="1"/>
<line x1="92.6" y1="660.3" x2="87.3" y2="661.0" stroke="#1f1c14" stroke-width="1"/>
<line x1="95.1" y1="656.0" x2="89.9" y2="654.5" stroke="#1f1c14" stroke-width="1"/>
<line x1="99.1" y1="653.0" x2="95.0" y2="649.6" stroke="#1f1c14" stroke-width="1"/>
<rect x="101.5" y="661.5" width="5" height="5" fill="#1f1c14"/>
<text x="104" y="700" font-size="11" fill="#1f1c14" text-anchor="middle" font-family="monospace">krokove-kolo</text>
<text x="104" y="716" font-size="11" fill="#6b6253" text-anchor="middle">krokové kolo (pilové)</text>
<ellipse cx="352" cy="667" rx="13" ry="5" fill="none" stroke="#1f1c14" stroke-width="1.3"/>
<line x1="339" y1="667" x2="339" y2="675" stroke="#1f1c14" stroke-width="1"/>
<line x1="365" y1="667" x2="365" y2="675" stroke="#1f1c14" stroke-width="1"/>
<path d="M339,675 A13 5 0 0 0 365,675" fill="none" stroke="#1f1c14" stroke-width="1.3"/>
<line x1="352" y1="675" x2="352" y2="682" stroke="#1f1c14" stroke-width="1.2"/>
<path d="M339.5,667.0 l1.3,-5 l2.4,5" fill="none" stroke="#1f1c14" stroke-width="0.8"/>
<path d="M343.1,663.5 l1.3,-5 l2.4,5" fill="none" stroke="#1f1c14" stroke-width="0.8"/>
<path d="M346.6,662.5 l1.3,-5 l2.4,5" fill="none" stroke="#1f1c14" stroke-width="0.8"/>
<path d="M350.2,662.1 l1.3,-5 l2.4,5" fill="none" stroke="#1f1c14" stroke-width="0.8"/>
<path d="M353.8,662.1 l1.3,-5 l2.4,5" fill="none" stroke="#1f1c14" stroke-width="0.8"/>
<path d="M357.4,662.5 l1.3,-5 l2.4,5" fill="none" stroke="#1f1c14" stroke-width="0.8"/>
<path d="M360.9,663.5 l1.3,-5 l2.4,5" fill="none" stroke="#1f1c14" stroke-width="0.8"/>
<path d="M364.5,667.0 l1.3,-5 l2.4,5" fill="none" stroke="#1f1c14" stroke-width="0.8"/>
<text x="352" y="700" font-size="11" fill="#1f1c14" text-anchor="middle" font-family="monospace">korunove-kolo</text>
<text x="352" y="716" font-size="11" fill="#6b6253" text-anchor="middle">korunové kolo</text>
<circle cx="600" cy="664" r="12" fill="none" stroke="#1f1c14" stroke-width="1.2"/>
<circle cx="600.0" cy="652.0" r="1.8" fill="#1f1c14"/>
<circle cx="606.0" cy="653.6" r="1.8" fill="#1f1c14"/>
<circle cx="610.4" cy="658.0" r="1.8" fill="#1f1c14"/>
<circle cx="612.0" cy="664.0" r="1.8" fill="#1f1c14"/>
<circle cx="610.4" cy="670.0" r="1.8" fill="#1f1c14"/>
<circle cx="606.0" cy="674.4" r="1.8" fill="#1f1c14"/>
<circle cx="600.0" cy="676.0" r="1.8" fill="#1f1c14"/>
<circle cx="594.0" cy="674.4" r="1.8" fill="#1f1c14"/>
<circle cx="589.6" cy="670.0" r="1.8" fill="#1f1c14"/>
<circle cx="588.0" cy="664.0" r="1.8" fill="#1f1c14"/>
<circle cx="589.6" cy="658.0" r="1.8" fill="#1f1c14"/>
<circle cx="594.0" cy="653.6" r="1.8" fill="#1f1c14"/>
<rect x="597.5" y="661.5" width="5" height="5" fill="#1f1c14"/>
<text x="600" y="700" font-size="11" fill="#1f1c14" text-anchor="middle" font-family="monospace">kolickove-kolo</text>
<text x="600" y="716" font-size="11" fill="#6b6253" text-anchor="middle">kolíčkové krokové kolo</text>
<circle cx="848" cy="664" r="9" fill="none" stroke="#1f1c14" stroke-width="1.2"/>
<line x1="848.0" y1="655.0" x2="848.0" y2="651.0" stroke="#1f1c14" stroke-width="0.7"/>
<path d="M848.0,651.0 L846.1,648.1" stroke="#1f1c14" stroke-width="0.8"/>
<line x1="852.5" y1="656.2" x2="854.5" y2="652.7" stroke="#1f1c14" stroke-width="0.7"/>
<path d="M854.5,652.7 L854.3,649.3" stroke="#1f1c14" stroke-width="0.8"/>
<line x1="855.8" y1="659.5" x2="859.3" y2="657.5" stroke="#1f1c14" stroke-width="0.7"/>
<path d="M859.3,657.5 L860.8,654.4" stroke="#1f1c14" stroke-width="0.8"/>
<line x1="857.0" y1="664.0" x2="861.0" y2="664.0" stroke="#1f1c14" stroke-width="0.7"/>
<path d="M861.0,664.0 L863.9,662.1" stroke="#1f1c14" stroke-width="0.8"/>
<line x1="855.8" y1="668.5" x2="859.3" y2="670.5" stroke="#1f1c14" stroke-width="0.7"/>
<path d="M859.3,670.5 L862.7,670.3" stroke="#1f1c14" stroke-width="0.8"/>
<line x1="852.5" y1="671.8" x2="854.5" y2="675.3" stroke="#1f1c14" stroke-width="0.7"/>
<path d="M854.5,675.3 L857.6,676.8" stroke="#1f1c14" stroke-width="0.8"/>
<line x1="848.0" y1="673.0" x2="848.0" y2="677.0" stroke="#1f1c14" stroke-width="0.7"/>
<path d="M848.0,677.0 L849.9,679.9" stroke="#1f1c14" stroke-width="0.8"/>
<line x1="843.5" y1="671.8" x2="841.5" y2="675.3" stroke="#1f1c14" stroke-width="0.7"/>
<path d="M841.5,675.3 L841.7,678.7" stroke="#1f1c14" stroke-width="0.8"/>
<line x1="840.2" y1="668.5" x2="836.7" y2="670.5" stroke="#1f1c14" stroke-width="0.7"/>
<path d="M836.7,670.5 L835.2,673.6" stroke="#1f1c14" stroke-width="0.8"/>
<line x1="839.0" y1="664.0" x2="835.0" y2="664.0" stroke="#1f1c14" stroke-width="0.7"/>
<path d="M835.0,664.0 L832.1,665.9" stroke="#1f1c14" stroke-width="0.8"/>
<line x1="840.2" y1="659.5" x2="836.7" y2="657.5" stroke="#1f1c14" stroke-width="0.7"/>
<path d="M836.7,657.5 L833.3,657.7" stroke="#1f1c14" stroke-width="0.8"/>
<line x1="843.5" y1="656.2" x2="841.5" y2="652.7" stroke="#1f1c14" stroke-width="0.7"/>
<path d="M841.5,652.7 L838.4,651.2" stroke="#1f1c14" stroke-width="0.8"/>
<rect x="845.5" y="661.5" width="5" height="5" fill="#1f1c14"/>
<text x="848" y="700" font-size="11" fill="#1f1c14" text-anchor="middle" font-family="monospace">cylindrove-kolo</text>
<text x="848" y="716" font-size="11" fill="#6b6253" text-anchor="middle">cylindrové (válcové) kolo</text>
<text x="40" y="760" font-size="14" fill="#9a3b2e">Kotva / krok</text>
<line x1="40" y1="766" x2="1012" y2="766" stroke="#9a3b2e" stroke-opacity="0.4" stroke-width="0.8"/>
<path d="M91,817 L104,796 L117,817" fill="none" stroke="#1f1c14" stroke-width="1.7"/>
<path d="M91,812 l-3,5" stroke="#1f1c14" stroke-width="2.4"/>
<path d="M117,812 l3,5" stroke="#1f1c14" stroke-width="2.4"/>
<circle cx="104" cy="796" r="2" fill="#1f1c14"/>
<text x="104" y="844" font-size="11" fill="#1f1c14" text-anchor="middle" font-family="monospace">kotva</text>
<text x="104" y="860" font-size="11" fill="#6b6253" text-anchor="middle">kotva vratná</text>
<path d="M339,815 L352,796 L365,815" fill="none" stroke="#1f1c14" stroke-width="1.6"/>
<path d="M336,817 a5 5 0 0 1 6,-7" fill="none" stroke="#1f1c14" stroke-width="2.2"/>
<path d="M368,817 a5 5 0 0 0 -6,-7" fill="none" stroke="#1f1c14" stroke-width="2.2"/>
<circle cx="352" cy="796" r="2" fill="#1f1c14"/>
<text x="352" y="844" font-size="11" fill="#1f1c14" text-anchor="middle" font-family="monospace">kotva-grahamova</text>
<text x="352" y="860" font-size="11" fill="#6b6253" text-anchor="middle">kotva klidová (Graham)</text>
<line x1="600" y1="793" x2="600" y2="823" stroke="#1f1c14" stroke-width="1.6"/>
<path d="M600,800 l-10,-4 l0,4 z" fill="#1f1c14"/>
<path d="M600,816 l10,4 l0,-4 z" fill="#1f1c14"/>
<circle cx="600" cy="793" r="1.8" fill="#1f1c14"/>
<text x="600" y="844" font-size="11" fill="#1f1c14" text-anchor="middle" font-family="monospace">vreteno</text>
<text x="600" y="860" font-size="11" fill="#6b6253" text-anchor="middle">vřeteno</text>
<path d="M836,814 L848,799 L860,814" fill="none" stroke="#1f1c14" stroke-width="1.6"/>
<line x1="848" y1="799" x2="848" y2="789" stroke="#1f1c14" stroke-width="1.3"/>
<path d="M844.5,789 l3.5,4 l3.5,-4" fill="none" stroke="#1f1c14" stroke-width="1.2"/>
<circle cx="848" cy="799" r="1.8" fill="#1f1c14"/>
<circle cx="848" cy="786" r="1.6" fill="#1f1c14"/>
<text x="848" y="844" font-size="11" fill="#1f1c14" text-anchor="middle" font-family="monospace">kotva-pakova</text>
<text x="848" y="860" font-size="11" fill="#6b6253" text-anchor="middle">kotva páková (volná)</text>
<path d="M92,917 L104,901 L116,917" fill="none" stroke="#1f1c14" stroke-width="1.6"/>
<circle cx="92" cy="917" r="2.6" fill="#1f1c14"/>
<circle cx="116" cy="917" r="2.6" fill="#1f1c14"/>
<circle cx="104" cy="901" r="2" fill="#1f1c14"/>
<text x="104" y="948" font-size="11" fill="#1f1c14" text-anchor="middle" font-family="monospace">paleta-kolikova</text>
<text x="104" y="964" font-size="11" fill="#6b6253" text-anchor="middle">paleta kolíková (Amant)</text>
<line x1="346" y1="899" x2="346" y2="925" stroke="#1f1c14" stroke-width="1.4"/>
<line x1="358" y1="899" x2="358" y2="925" stroke="#1f1c14" stroke-width="1.4"/>
<path d="M346,899 a6 3 0 0 1 12,0" fill="none" stroke="#1f1c14" stroke-width="1.1"/>
<path d="M346,925 a6 3 0 0 0 12,0" fill="none" stroke="#1f1c14" stroke-width="1.1"/>
<path d="M358,909 a6 3 0 0 1 0,8" fill="none" stroke="#1f1c14" stroke-width="1" stroke-dasharray="2 2"/>
<text x="352" y="948" font-size="11" fill="#1f1c14" text-anchor="middle" font-family="monospace">cylindr</text>
<text x="352" y="964" font-size="11" fill="#6b6253" text-anchor="middle">cylindr (válec)</text>
<line x1="585" y1="924" x2="612" y2="903" stroke="#1f1c14" stroke-width="1.5"/>
<rect x="609" y="899" width="5" height="5" fill="#1f1c14"/>
<path d="M585,924 q-4,-3 -2,-8" fill="none" stroke="#1f1c14" stroke-width="1"/>
<path d="M599,913 l7,-4" stroke="#1f1c14" stroke-width="0.8"/>
<text x="600" y="948" font-size="11" fill="#1f1c14" text-anchor="middle" font-family="monospace">detent</text>
<text x="600" y="964" font-size="11" fill="#6b6253" text-anchor="middle">zarážka chronometru</text>
<path d="M839,917 l6,-12 l12,4 l-6,12 z" fill="none" stroke="#1f1c14" stroke-width="1.4"/>
<text x="848" y="948" font-size="11" fill="#1f1c14" text-anchor="middle" font-family="monospace">paleta</text>
<text x="848" y="964" font-size="11" fill="#6b6253" text-anchor="middle">paleta</text>
<text x="40" y="1008" font-size="14" fill="#9a3b2e">Oscilátor</text>
<line x1="40" y1="1014" x2="1012" y2="1014" stroke="#9a3b2e" stroke-opacity="0.4" stroke-width="0.8"/>
<line x1="104" y1="1040" x2="104" y2="1064" stroke="#1f1c14" stroke-width="1.4"/>
<circle cx="104" cy="1069" r="6" fill="none" stroke="#1f1c14" stroke-width="1.7"/>
<text x="104" y="1092" font-size="11" fill="#1f1c14" text-anchor="middle" font-family="monospace">kyvadlo</text>
<text x="104" y="1108" font-size="11" fill="#6b6253" text-anchor="middle">kyvadlo</text>
<line x1="336" y1="1056" x2="368" y2="1056" stroke="#1f1c14" stroke-width="1.7"/>
<line x1="352" y1="1046" x2="352" y2="1056" stroke="#1f1c14" stroke-width="1.3"/>
<rect x="333" y="1052" width="7" height="8" fill="#1f1c14"/>
<rect x="364" y="1052" width="7" height="8" fill="#1f1c14"/>
<text x="352" y="1092" font-size="11" fill="#1f1c14" text-anchor="middle" font-family="monospace">lihyr</text>
<text x="352" y="1108" font-size="11" fill="#6b6253" text-anchor="middle">lihýř / foliot</text>
<circle cx="600" cy="1056" r="14" fill="none" stroke="#1f1c14" stroke-width="1.7"/>
<line x1="586" y1="1056" x2="614" y2="1056" stroke="#1f1c14" stroke-width="1.1"/>
<line x1="600" y1="1042" x2="600" y2="1070" stroke="#1f1c14" stroke-width="1.1"/>
<circle cx="600" cy="1056" r="2.4" fill="#1f1c14"/>
<text x="600" y="1092" font-size="11" fill="#1f1c14" text-anchor="middle" font-family="monospace">setrvacka</text>
<text x="600" y="1108" font-size="11" fill="#6b6253" text-anchor="middle">setrvačka</text>
<polyline points="849.5,1056.0 849.6,1056.9 849.1,1057.8 848.2,1058.4 846.8,1058.5 845.5,1057.8 844.7,1056.4 844.6,1054.6 845.5,1052.9 847.2,1051.8 849.4,1051.6 851.6,1052.6 853.1,1054.7 853.4,1057.4 852.3,1060.0 849.9,1061.9 846.8,1062.4 843.7,1061.2 841.4,1058.6 840.6,1055.1 841.7,1051.4 844.6,1048.7 848.5,1047.6 852.7,1048.7 855.9,1051.7 857.3,1056.0 856.4,1060.6 853.3,1064.4 848.6,1066.2 843.5,1065.6 839.2,1062.4 836.9,1057.4 837.3,1051.8 840.5,1046.9 845.7,1044.1 851.8,1044.2 857.3,1047.3 860.7,1052.8 861.0,1059.3 858.0,1065.4 852.3,1069.3" fill="none" stroke="#1f1c14" stroke-width="1.0"/>
<text x="848" y="1092" font-size="11" fill="#1f1c14" text-anchor="middle" font-family="monospace">vlasek</text>
<text x="848" y="1108" font-size="11" fill="#6b6253" text-anchor="middle">vlásek</text>
<text x="40" y="1152" font-size="14" fill="#9a3b2e">Bicí</text>
<line x1="40" y1="1158" x2="1012" y2="1158" stroke="#9a3b2e" stroke-opacity="0.4" stroke-width="0.8"/>
<circle cx="104" cy="1200" r="14" fill="none" stroke="#1f1c14" stroke-width="1.4"/>
<line x1="104.0" y1="1186.0" x2="104.0" y2="1191.0" stroke="#1f1c14" stroke-width="1.1"/>
<line x1="113.0" y1="1189.3" x2="109.8" y2="1193.1" stroke="#1f1c14" stroke-width="1.1"/>
<line x1="117.9" y1="1201.2" x2="113.0" y2="1200.8" stroke="#1f1c14" stroke-width="1.1"/>
<line x1="111.0" y1="1212.1" x2="108.5" y2="1207.8" stroke="#1f1c14" stroke-width="1.1"/>
<line x1="97.0" y1="1212.1" x2="99.5" y2="1207.8" stroke="#1f1c14" stroke-width="1.1"/>
<line x1="90.5" y1="1196.4" x2="95.3" y2="1197.7" stroke="#1f1c14" stroke-width="1.1"/>
<circle cx="104" cy="1200" r="2" fill="#1f1c14"/>
<text x="104" y="1236" font-size="11" fill="#1f1c14" text-anchor="middle" font-family="monospace">zaverka</text>
<text x="104" y="1252" font-size="11" fill="#6b6253" text-anchor="middle">závěrka / počitadlo</text>
<circle cx="337" cy="1212" r="2" fill="#1f1c14"/>
<polyline points="314.5,1199.0 317.7,1194.6 321.7,1191.0 326.4,1188.2 331.6,1186.6 337.0,1186.0 342.4,1186.6 347.6,1188.2 352.3,1191.0" fill="none" stroke="#1f1c14" stroke-width="1.4"/>
<line x1="314.5" y1="1199.0" x2="317.9" y2="1201.0" stroke="#1f1c14" stroke-width="1"/>
<line x1="317.7" y1="1194.6" x2="320.7" y2="1197.3" stroke="#1f1c14" stroke-width="1"/>
<line x1="321.7" y1="1191.0" x2="324.1" y2="1194.2" stroke="#1f1c14" stroke-width="1"/>
<line x1="326.4" y1="1188.2" x2="328.1" y2="1191.9" stroke="#1f1c14" stroke-width="1"/>
<line x1="331.6" y1="1186.6" x2="332.4" y2="1190.5" stroke="#1f1c14" stroke-width="1"/>
<line x1="337.0" y1="1186.0" x2="337.0" y2="1190.0" stroke="#1f1c14" stroke-width="1"/>
<line x1="342.4" y1="1186.6" x2="341.6" y2="1190.5" stroke="#1f1c14" stroke-width="1"/>
<line x1="347.6" y1="1188.2" x2="345.9" y2="1191.9" stroke="#1f1c14" stroke-width="1"/>
<line x1="352.3" y1="1191.0" x2="349.9" y2="1194.2" stroke="#1f1c14" stroke-width="1"/>
<text x="352" y="1236" font-size="11" fill="#1f1c14" text-anchor="middle" font-family="monospace">pocetnik</text>
<text x="352" y="1252" font-size="11" fill="#6b6253" text-anchor="middle">početník</text>
<polyline points="604.0,1200.0 604.3,1202.5 602.9,1205.1 600.0,1206.8 596.2,1206.6 592.6,1204.3 590.5,1200.0 591.0,1194.8 594.3,1190.2 600.0,1187.8 606.6,1188.6 612.2,1193.0 615.0,1200.0" fill="none" stroke="#1f1c14" stroke-width="1.5"/>
<line x1="615.0" y1="1200.0" x2="604.0" y2="1200.0" stroke="#1f1c14" stroke-width="1.1"/>
<circle cx="600" cy="1200" r="2" fill="#1f1c14"/>
<text x="600" y="1236" font-size="11" fill="#1f1c14" text-anchor="middle" font-family="monospace">stupnice</text>
<text x="600" y="1252" font-size="11" fill="#6b6253" text-anchor="middle">stupnice</text>
<circle cx="848" cy="1200" r="13" fill="none" stroke="#1f1c14" stroke-width="1.4"/>
<path d="M848,1187 l-3,5 l6,0 z" fill="#f4eedd" stroke="#1f1c14" stroke-width="1.2"/>
<circle cx="848" cy="1200" r="2" fill="#1f1c14"/>
<text x="848" y="1236" font-size="11" fill="#1f1c14" text-anchor="middle" font-family="monospace">srdcovka</text>
<text x="848" y="1252" font-size="11" fill="#6b6253" text-anchor="middle">srdcovka</text>
<ellipse cx="106" cy="1304" rx="13" ry="9" fill="none" stroke="#1f1c14" stroke-width="1.5"/>
<circle cx="104" cy="1304" r="2" fill="#1f1c14"/>
<line x1="104" y1="1304" x2="119" y2="1304" stroke="#1f1c14" stroke-width="0.7" stroke-dasharray="2 2"/>
<text x="104" y="1340" font-size="11" fill="#1f1c14" text-anchor="middle" font-family="monospace">posuvka</text>
<text x="104" y="1356" font-size="11" fill="#6b6253" text-anchor="middle">posůvka</text>
<circle cx="348" cy="1304" r="11" fill="none" stroke="#1f1c14" stroke-width="1.3"/>
<circle cx="355.1" cy="1295.6" r="2.2" fill="#1f1c14"/>
<path d="M366,1292 L358,1306" fill="none" stroke="#9a3b2e" stroke-width="1.5"/>
<circle cx="366" cy="1292" r="2" fill="#9a3b2e"/>
<text x="352" y="1340" font-size="11" fill="#1f1c14" text-anchor="middle" font-family="monospace">vypousteci-kolo</text>
<text x="352" y="1356" font-size="11" fill="#6b6253" text-anchor="middle">vypouštěcí kolo</text>
<circle cx="587" cy="1298" r="2" fill="#1f1c14"/>
<path d="M587,1298 L610,1308 M587,1298 L591,1314" fill="none" stroke="#1f1c14" stroke-width="1.5"/>
<circle cx="591" cy="1315" r="1.6" fill="#1f1c14"/>
<text x="600" y="1340" font-size="11" fill="#1f1c14" text-anchor="middle" font-family="monospace">vypousteci-paka</text>
<text x="600" y="1356" font-size="11" fill="#6b6253" text-anchor="middle">vypouštěcí páka</text>
<circle cx="860" cy="1296" r="2" fill="#1f1c14"/>
<path d="M860,1296 L838,1308 l0,7 l4,0" fill="none" stroke="#1f1c14" stroke-width="1.5"/>
<text x="848" y="1340" font-size="11" fill="#1f1c14" text-anchor="middle" font-family="monospace">zaverna-paka</text>
<text x="848" y="1356" font-size="11" fill="#6b6253" text-anchor="middle">závěrná páka</text>
<circle cx="114" cy="1399" r="2" fill="#1f1c14"/>
<path d="M114,1399 L96,1414 l5,-1" fill="none" stroke="#1f1c14" stroke-width="1.5"/>
<path d="M90,1418 l3,-4 l3,4" fill="none" stroke="#6b6253" stroke-width="0.9"/>
<path d="M95,1418 l3,-4 l3,4" fill="none" stroke="#6b6253" stroke-width="0.9"/>
<path d="M100,1418 l3,-4 l3,4" fill="none" stroke="#6b6253" stroke-width="0.9"/>
<text x="104" y="1444" font-size="11" fill="#1f1c14" text-anchor="middle" font-family="monospace">zapadka-pocetniku</text>
<text x="104" y="1460" font-size="11" fill="#6b6253" text-anchor="middle">západka početníku</text>
<circle cx="352" cy="1408" r="9" fill="none" stroke="#1f1c14" stroke-width="1.3"/>
<path d="M352,1408 L367,1401" fill="none" stroke="#1f1c14" stroke-width="1.6"/>
<rect x="349.5" y="1405.5" width="5" height="5" fill="#1f1c14"/>
<text x="352" y="1444" font-size="11" fill="#1f1c14" text-anchor="middle" font-family="monospace">sberaci-palec</text>
<text x="352" y="1460" font-size="11" fill="#6b6253" text-anchor="middle">sběrací palec</text>
<line x1="600" y1="1393" x2="600" y2="1423" stroke="#1f1c14" stroke-width="1.3"/>
<rect x="584" y="1396" width="11" height="9" fill="none" stroke="#1f1c14" stroke-width="1.3"/>
<rect x="605" y="1411" width="11" height="9" fill="none" stroke="#1f1c14" stroke-width="1.3"/>
<text x="600" y="1444" font-size="11" fill="#1f1c14" text-anchor="middle" font-family="monospace">vetrnik</text>
<text x="600" y="1460" font-size="11" fill="#6b6253" text-anchor="middle">větrník</text>
<circle cx="835" cy="1418" r="2" fill="#1f1c14"/>
<line x1="835" y1="1418" x2="858" y2="1400" stroke="#1f1c14" stroke-width="1.5"/>
<rect x="856" y="1395" width="9" height="7" rx="1.5" fill="#1f1c14"/>
<text x="848" y="1444" font-size="11" fill="#1f1c14" text-anchor="middle" font-family="monospace">kladivko</text>
<text x="848" y="1460" font-size="11" fill="#6b6253" text-anchor="middle">kladivo</text>
<path d="M92,1521 q0,-20 12,-20 q12,0 12,20 z" fill="none" stroke="#1f1c14" stroke-width="1.6"/>
<line x1="90" y1="1521" x2="118" y2="1521" stroke="#1f1c14" stroke-width="1.4"/>
<circle cx="104" cy="1524" r="2" fill="#1f1c14"/>
<text x="104" y="1548" font-size="11" fill="#1f1c14" text-anchor="middle" font-family="monospace">cimbal</text>
<text x="104" y="1564" font-size="11" fill="#6b6253" text-anchor="middle">cimbál / zvon</text>
<text x="40" y="1608" font-size="14" fill="#9a3b2e">Ukazovací</text>
<line x1="40" y1="1614" x2="1012" y2="1614" stroke="#9a3b2e" stroke-opacity="0.4" stroke-width="0.8"/>
<circle cx="104" cy="1656" r="15" fill="none" stroke="#1f1c14" stroke-width="1.5"/>
<text x="104" y="1650" font-size="6" fill="#1f1c14" text-anchor="middle">XII</text>
<line x1="104" y1="1656" x2="111" y2="1652" stroke="#1f1c14" stroke-width="1.2"/>
<circle cx="104" cy="1656" r="1.6" fill="#1f1c14"/>
<text x="104" y="1692" font-size="11" fill="#1f1c14" text-anchor="middle" font-family="monospace">cifernik</text>
<text x="104" y="1708" font-size="11" fill="#6b6253" text-anchor="middle">ciferník</text>
<circle cx="339" cy="1662" r="2.4" fill="#33506b"/>
<line x1="339" y1="1662" x2="363" y2="1648" stroke="#33506b" stroke-width="2"/>
<path d="M363,1648 l-6,1 l3,4 z" fill="#33506b"/>
<text x="352" y="1692" font-size="11" fill="#1f1c14" text-anchor="middle" font-family="monospace">rucka</text>
<text x="352" y="1708" font-size="11" fill="#6b6253" text-anchor="middle">ručka</text>
<line x1="600" y1="1668" x2="600" y2="1650" stroke="#33506b" stroke-width="1.5"/>
<path d="M596,1650 l4,-7 l4,7 z" fill="#33506b"/>
<circle cx="600" cy="1668" r="2" fill="#33506b"/>
<text x="600" y="1692" font-size="11" fill="#1f1c14" text-anchor="middle" font-family="monospace">indikace</text>
<text x="600" y="1708" font-size="11" fill="#6b6253" text-anchor="middle">indikace</text>
<text x="40" y="1752" font-size="14" fill="#9a3b2e">Speciální</text>
<line x1="40" y1="1758" x2="1012" y2="1758" stroke="#9a3b2e" stroke-opacity="0.4" stroke-width="0.8"/>
<polyline points="99.0,1800.0 99.1,1800.3 99.1,1800.7 99.0,1801.1 98.7,1801.5 98.3,1801.9 97.7,1802.0 97.1,1802.0 96.5,1801.8 95.9,1801.4 95.4,1800.8 95.1,1800.1 95.0,1799.2 95.2,1798.3 95.6,1797.5 96.4,1796.8 97.3,1796.3 98.4,1796.0 99.5,1796.1 100.7,1796.6 101.6,1797.4 102.4,1798.4 102.8,1799.7 102.9,1801.1 102.6,1802.5 101.8,1803.8 100.7,1804.9 99.2,1805.6 97.6,1805.9 95.9,1805.7 94.3,1805.1 92.9,1803.9 91.9,1802.4 91.3,1800.6 91.2,1798.7 91.7,1796.8 92.7,1795.0 94.2,1793.6 96.1,1792.6 98.2,1792.2 100.5,1792.4" fill="none" stroke="#9a3b2e" stroke-width="1.1"/>
<line x1="106" y1="1800" x2="119" y2="1791" stroke="#9a3b2e" stroke-width="1.5"/>
<circle cx="119" cy="1791" r="2" fill="#9a3b2e"/>
<text x="106" y="1815" font-size="8" fill="#9a3b2e" text-anchor="middle" font-style="italic">R</text>
<text x="104" y="1836" font-size="11" fill="#1f1c14" text-anchor="middle" font-family="monospace">remontoir</text>
<text x="104" y="1852" font-size="11" fill="#6b6253" text-anchor="middle">remontoár</text>
<circle cx="348" cy="1800" r="11" fill="none" stroke="#1f1c14" stroke-width="1.3"/>
<polyline points="363.0,1804.0 363.1,1804.3 363.1,1804.6 362.9,1804.9 362.8,1805.2 362.5,1805.4 362.1,1805.6 361.7,1805.7 361.2,1805.6 360.8,1805.5 360.4,1805.2 360.0,1804.8 359.8,1804.3 359.7,1803.7 359.8,1803.1 360.0,1802.5 360.3,1802.0 360.9,1801.6 361.5,1801.2 362.2,1801.1 362.9,1801.1 363.7,1801.4 364.3,1801.8 364.9,1802.4 365.3,1803.2 365.5,1804.0 365.5,1804.9 365.2,1805.8 364.8,1806.6 364.1,1807.3 363.2,1807.8 362.3,1808.1 361.2,1808.1 360.2,1807.9 359.2,1807.4 358.4,1806.6 357.7,1805.7 357.3,1804.6 357.2,1803.4 357.4,1802.2 358.0,1801.1" fill="none" stroke="#9a3b2e" stroke-width="1.0"/>
<path d="M362,1804 L351,1797" fill="none" stroke="#9a3b2e" stroke-width="1.4"/>
<text x="352" y="1836" font-size="11" fill="#1f1c14" text-anchor="middle" font-family="monospace">udrzbovy-pohon</text>
<text x="352" y="1852" font-size="11" fill="#6b6253" text-anchor="middle">údržbový pohon</text>
<text x="1012" y="1862" font-size="10" fill="#6b6253" text-anchor="end" font-style="italic">horonotace · list symbolů</text>
</svg>