<svg viewBox="0 0 590.0 618" xmlns="http://www.w3.org/2000/svg" font-family="Georgia,'Times New Roman',serif" role="img">
<title>Ukázkový jicí stroj</title><desc>Schématická elevace soukolí (horonotace, vrstva C).</desc>
<rect width="590.0" height="618" fill="#f4eedd"/>
<defs><marker id="ar" markerWidth="9" markerHeight="9" refX="7" refY="3" orient="auto"><path d="M0,0 L7,3 L0,6 z" fill="#33506b"/></marker></defs>
<text x="150" y="44" font-size="21" fill="#1f1c14">Ukázkový jicí stroj</text>
<text x="150" y="66" font-size="12" fill="#6b6253">ilustrativní</text>
<line x1="80" y1="168" x2="432.0" y2="168" stroke="#1f1c14" stroke-width="2.2"/>
<text x="432.0" y="163" font-size="12" fill="#6b6253" text-anchor="end" font-style="italic">Platine</text>
<line x1="80" y1="448" x2="432.0" y2="448" stroke="#1f1c14" stroke-width="2.2"/>
<text x="432.0" y="443" font-size="12" fill="#6b6253" text-anchor="end" font-style="italic">Platine</text>
<path d="M124.0,148 L124.0,138 L366.0,138 L366.0,148" fill="none" stroke="#9a3b2e" stroke-width="1.2"/>
<text x="245.0" y="133" font-size="12.5" fill="#9a3b2e" text-anchor="middle">Jicí soukolí</text>
<path d="M314.0,148 L314.0,138 L366.0,138 L366.0,148" fill="none" stroke="#5b4b8a" stroke-width="1.2"/>
<text x="340.0" y="133" font-size="12.5" fill="#5b4b8a" text-anchor="middle">Krok</text>
<line x1="150.0" y1="168" x2="150.0" y2="448" stroke="#9a3b2e" stroke-opacity="0.6" stroke-width="1.2"/>
<line x1="145.5" y1="168" x2="154.5" y2="168" stroke="#1f1c14" stroke-width="1.8"/>
<line x1="145.5" y1="448" x2="154.5" y2="448" stroke="#1f1c14" stroke-width="1.8"/>
<line x1="247.7" y1="168" x2="247.7" y2="448" stroke="#9a3b2e" stroke-opacity="0.6" stroke-width="1.2"/>
<line x1="243.2" y1="168" x2="252.2" y2="168" stroke="#1f1c14" stroke-width="1.8"/>
<line x1="243.2" y1="448" x2="252.2" y2="448" stroke="#1f1c14" stroke-width="1.8"/>
<line x1="340.0" y1="168" x2="340.0" y2="448" stroke="#9a3b2e" stroke-opacity="0.6" stroke-width="1.2"/>
<line x1="335.5" y1="168" x2="344.5" y2="168" stroke="#1f1c14" stroke-width="1.8"/>
<line x1="335.5" y1="448" x2="344.5" y2="448" stroke="#1f1c14" stroke-width="1.8"/>
<path d="M212.0,232 H225.95 V232 H239.89999999999998" fill="none" stroke="#1f1c14" stroke-width="1.4"/>
<line x1="222.95" y1="229.0" x2="228.95" y2="235.0" stroke="#1f1c14" stroke-width="1"/>
<path d="M305.8,296 H319.0 V296 H332.2" fill="none" stroke="#1f1c14" stroke-width="1.4"/>
<line x1="316.0" y1="293.0" x2="322.0" y2="299.0" stroke="#1f1c14" stroke-width="1"/>
<line x1="88.0" y1="232" x2="212.0" y2="232" stroke="#9a3b2e" stroke-width="1.9"/>
<line x1="88.0" y1="227" x2="88.0" y2="237" stroke="#9a3b2e" stroke-width="1.3"/>
<line x1="212.0" y1="227" x2="212.0" y2="237" stroke="#9a3b2e" stroke-width="1.3"/>
<text x="150.0" y="224" font-size="12.5" font-style="italic" fill="#1f1c14" text-anchor="middle">96</text>
<rect x="147.0" y="229" width="6" height="6" fill="#9a3b2e"/>
<line x1="239.89999999999998" y1="232" x2="255.5" y2="232" stroke="#9a3b2e" stroke-width="1.9"/>
<line x1="239.89999999999998" y1="227" x2="239.89999999999998" y2="237" stroke="#9a3b2e" stroke-width="1.3"/>
<line x1="255.5" y1="227" x2="255.5" y2="237" stroke="#9a3b2e" stroke-width="1.3"/>
<text x="247.7" y="224" font-size="12.5" font-style="italic" fill="#1f1c14" text-anchor="middle">12</text>
<rect x="244.7" y="229" width="6" height="6" fill="#9a3b2e"/>
<line x1="189.6" y1="296" x2="305.8" y2="296" stroke="#9a3b2e" stroke-width="1.9"/>
<line x1="189.6" y1="291" x2="189.6" y2="301" stroke="#9a3b2e" stroke-width="1.3"/>
<line x1="305.8" y1="291" x2="305.8" y2="301" stroke="#9a3b2e" stroke-width="1.3"/>
<text x="247.7" y="288" font-size="12.5" font-style="italic" fill="#1f1c14" text-anchor="middle">90</text>
<rect x="244.7" y="293" width="6" height="6" fill="#9a3b2e"/>
<line x1="332.2" y1="296" x2="347.8" y2="296" stroke="#9a3b2e" stroke-width="1.9"/>
<line x1="332.2" y1="291" x2="332.2" y2="301" stroke="#9a3b2e" stroke-width="1.3"/>
<line x1="347.8" y1="291" x2="347.8" y2="301" stroke="#9a3b2e" stroke-width="1.3"/>
<text x="340.0" y="288" font-size="12.5" font-style="italic" fill="#1f1c14" text-anchor="middle">12</text>
<rect x="337.0" y="293" width="6" height="6" fill="#9a3b2e"/>
<line x1="320.6" y1="360" x2="359.4" y2="360" stroke="#9a3b2e" stroke-width="1.9"/>
<path d="M320.6,365 L320.6,355 L326.6,359" fill="none" stroke="#9a3b2e" stroke-width="1.4"/>
<path d="M359.4,365 L359.4,355 L353.4,359" fill="none" stroke="#9a3b2e" stroke-width="1.4"/>
<text x="340.0" y="375" font-size="12.5" font-style="italic" fill="#1f1c14" text-anchor="middle">30</text>
<rect x="337.0" y="357" width="6" height="6" fill="#9a3b2e"/>
<text x="367.4" y="363" font-size="10" font-style="italic" fill="#9a3b2e">krok: kotvový</text>
<path d="M331.0,357 L340.0,343 L349.0,357" fill="none" stroke="#1f1c14" stroke-width="1.6"/>
<line x1="331.0" y1="354" x2="334.0" y2="359" stroke="#1f1c14" stroke-width="2.3"/>
<line x1="349.0" y1="354" x2="346.0" y2="359" stroke="#1f1c14" stroke-width="2.3"/>
<circle cx="340.0" cy="343" r="1.8" fill="#1f1c14"/>
<line x1="247.7" y1="296" x2="247.7" y2="98" stroke="#9a3b2e" stroke-width="1.3"/>
<text x="247.7" y="93" font-size="11.5" fill="#9a3b2e" text-anchor="middle">▲ minuty</text>
<line x1="340.0" y1="448" x2="340.0" y2="522" stroke="#1f1c14" stroke-width="1.3"/>
<circle cx="340.0" cy="534" r="11" fill="none" stroke="#1f1c14" stroke-width="1.6"/>
<text x="357.0" y="538" font-size="11" fill="#6b6253">kyvadlo 2 s</text>
<rect x="141.0" y="399" width="18.0" height="18" rx="2" fill="none" stroke="#705f31" stroke-width="1.5"/>
<line x1="145.5" y1="399" x2="145.5" y2="417" stroke="#705f31" stroke-opacity="0.55" stroke-width="0.7"/>
<line x1="150.0" y1="399" x2="150.0" y2="417" stroke="#705f31" stroke-opacity="0.55" stroke-width="0.7"/>
<line x1="154.5" y1="399" x2="154.5" y2="417" stroke="#705f31" stroke-opacity="0.55" stroke-width="0.7"/>
<text x="165.0" y="411" font-size="9.5" fill="#705f31">buben ⌀40 mm, 6 ot.</text>
<line x1="141.0" y1="417" x2="141.0" y2="478" stroke="#705f31" stroke-width="1.1"/>
<path d="M131.0,478 h20 l-3,26 h-14 z" fill="none" stroke="#705f31" stroke-width="1.5"/>
<line x1="134.0" y1="484" x2="148.0" y2="484" stroke="#705f31" stroke-width="0.7"/>
<line x1="134.0" y1="489" x2="148.0" y2="489" stroke="#705f31" stroke-width="0.7"/>
<line x1="134.0" y1="494" x2="148.0" y2="494" stroke="#705f31" stroke-width="0.7"/>
<line x1="134.0" y1="499" x2="148.0" y2="499" stroke="#705f31" stroke-width="0.7"/>
<text x="141.0" y="520" font-size="10.5" fill="#705f31" text-anchor="middle">závaží</text>
<rect x="146.0" y="184" width="8" height="8" fill="none" stroke="#705f31" stroke-width="1.2" transform="rotate(45 150.0 188)"/>
<path d="M150.0,188 h26 v-20" fill="none" stroke="#705f31" stroke-width="1.6"/>
<circle cx="176.0" cy="168" r="2.8" fill="#705f31"/>
<circle cx="150.0" cy="207" r="6.5" fill="none" stroke="#705f31" stroke-width="1.1"/>
<path d="M144.0,204 l2,-4 l2,4 l2,-4 l2,4 l2,-4" fill="none" stroke="#705f31" stroke-width="0.9"/>
<circle cx="162.0" cy="198" r="1.5" fill="#705f31"/>
<path d="M162.0,198 l-7,7" fill="none" stroke="#705f31" stroke-width="1.2"/>
<text x="184.0" y="172" font-size="9" fill="#705f31">natahování</text>
<rect x="150" y="579" width="9" height="9" fill="#1f1c14"/>
<text x="164" y="588" font-size="11" fill="#6b6253">klíny = kolo spojené se svou dráhou</text>
<line x1="400" y1="577" x2="400" y2="590" stroke="#6b6253" stroke-width="1.1"/>
<line x1="397" y1="580" x2="397" y2="590" stroke="#6b6253" stroke-width="1"/>
<line x1="403" y1="580" x2="403" y2="590" stroke="#6b6253" stroke-width="1"/>
<line x1="394" y1="583" x2="394" y2="590" stroke="#6b6253" stroke-width="1"/>
<line x1="406" y1="583" x2="406" y2="590" stroke="#6b6253" stroke-width="1"/>
<text x="414" y="588" font-size="11" fill="#6b6253">osa (nejdelší) + kratší trubky → ukazatele</text>
<text x="150" y="606" font-size="10" fill="#6b6253" font-style="italic">barva = jednotlivá dráha (osa/trubka) · délka úsečky kola ∝ roztečnému průměru (∝ z)</text>
<text x="560.0" y="604" font-size="10" fill="#6b6253" text-anchor="end" font-style="italic">horonotace · vrstva C</text>
</svg>