<svg viewBox="0 0 600 462.6" xmlns="http://www.w3.org/2000/svg" font-family="Georgia,'Times New Roman',serif">
<rect width="600" height="462.6" fill="#f4eedd"/>
<text x="40" y="40" font-size="17" fill="#1f1c14">Ukázkový jicí stroj <tspan font-size="12" fill="#8a8170">— čelní pohled</tspan></text>
<text x="40" y="58" font-size="11" fill="#8a8170">kola = roztečné kružnice (⌀ ∝ zubům) · záběr = dotyk kružnic · režim: schématický (z počtu zubů)</text>
<line x1="158.0" y1="228.0" x2="279.3" y2="282.0" stroke="#8a8170" stroke-width="0.6" stroke-dasharray="2 3"/>
<circle cx="265.8" cy="276.0" r="2.4" fill="none" stroke="#9a3b2e" stroke-width="1.1"/>
<line x1="279.3" y1="282.0" x2="393.8" y2="231.0" stroke="#8a8170" stroke-width="0.6" stroke-dasharray="2 3"/>
<circle cx="380.4" cy="237.0" r="2.4" fill="none" stroke="#9a3b2e" stroke-width="1.1"/>
<circle cx="158.0" cy="228.0" r="118.0" fill="none" stroke="#9a3b2e" stroke-width="1.4"/>
<text x="158.0" y="106.0" font-size="11" fill="#9a3b2e" text-anchor="middle">96</text>
<circle cx="158.0" cy="228.0" r="2.2" fill="#1f1c14"/>
<circle cx="279.3" cy="282.0" r="110.6" fill="none" stroke="#9a3b2e" stroke-width="1.4"/>
<circle cx="279.3" cy="282.0" r="14.8" fill="#9a3b2e" fill-opacity="0.18" stroke="#9a3b2e" stroke-width="1.3"/>
<text x="279.3" y="167.4" font-size="11" fill="#9a3b2e" text-anchor="middle">90</text>
<text x="285.3" y="285.0" font-size="9" fill="#9a3b2e">12</text>
<circle cx="279.3" cy="282.0" r="2.2" fill="#1f1c14"/>
<circle cx="393.8" cy="231.0" r="36.9" fill="none" stroke="#5b4b8a" stroke-width="1.5"/>
<path d="M430.7,231.0 L434.5,235.1 L429.9,238.7" fill="none" stroke="#5b4b8a" stroke-width="0.7"/>
<path d="M429.9,238.7 L432.7,243.4 L427.5,246.0" fill="none" stroke="#5b4b8a" stroke-width="0.7"/>
<path d="M427.5,246.0 L429.3,251.3 L423.6,252.7" fill="none" stroke="#5b4b8a" stroke-width="0.7"/>
<path d="M423.6,252.7 L424.3,258.2 L418.5,258.4" fill="none" stroke="#5b4b8a" stroke-width="0.7"/>
<path d="M418.5,258.4 L418.0,264.0 L412.2,262.9" fill="none" stroke="#5b4b8a" stroke-width="0.7"/>
<path d="M412.2,262.9 L410.6,268.3 L405.2,266.1" fill="none" stroke="#5b4b8a" stroke-width="0.7"/>
<path d="M405.2,266.1 L402.5,270.9 L397.7,267.7" fill="none" stroke="#5b4b8a" stroke-width="0.7"/>
<path d="M397.7,267.7 L394.0,271.9 L389.9,267.7" fill="none" stroke="#5b4b8a" stroke-width="0.7"/>
<path d="M389.9,267.7 L385.5,271.0 L382.4,266.1" fill="none" stroke="#5b4b8a" stroke-width="0.7"/>
<path d="M382.4,266.1 L377.4,268.4 L375.4,262.9" fill="none" stroke="#5b4b8a" stroke-width="0.7"/>
<path d="M375.4,262.9 L369.9,264.2 L369.1,258.4" fill="none" stroke="#5b4b8a" stroke-width="0.7"/>
<path d="M369.1,258.4 L363.6,258.5 L364.0,252.7" fill="none" stroke="#5b4b8a" stroke-width="0.7"/>
<path d="M364.0,252.7 L358.5,251.6 L360.1,246.0" fill="none" stroke="#5b4b8a" stroke-width="0.7"/>
<path d="M360.1,246.0 L355.0,243.8 L357.7,238.7" fill="none" stroke="#5b4b8a" stroke-width="0.7"/>
<path d="M357.7,238.7 L353.2,235.5 L356.9,231.0" fill="none" stroke="#5b4b8a" stroke-width="0.7"/>
<path d="M356.9,231.0 L353.1,226.9 L357.7,223.3" fill="none" stroke="#5b4b8a" stroke-width="0.7"/>
<path d="M357.7,223.3 L354.9,218.6 L360.1,216.0" fill="none" stroke="#5b4b8a" stroke-width="0.7"/>
<path d="M360.1,216.0 L358.3,210.7 L364.0,209.3" fill="none" stroke="#5b4b8a" stroke-width="0.7"/>
<path d="M364.0,209.3 L363.3,203.8 L369.1,203.6" fill="none" stroke="#5b4b8a" stroke-width="0.7"/>
<path d="M369.1,203.6 L369.6,198.0 L375.4,199.1" fill="none" stroke="#5b4b8a" stroke-width="0.7"/>
<path d="M375.4,199.1 L377.0,193.7 L382.4,195.9" fill="none" stroke="#5b4b8a" stroke-width="0.7"/>
<path d="M382.4,195.9 L385.1,191.1 L389.9,194.3" fill="none" stroke="#5b4b8a" stroke-width="0.7"/>
<path d="M389.9,194.3 L393.6,190.1 L397.7,194.3" fill="none" stroke="#5b4b8a" stroke-width="0.7"/>
<path d="M397.7,194.3 L402.1,191.0 L405.2,195.9" fill="none" stroke="#5b4b8a" stroke-width="0.7"/>
<path d="M405.2,195.9 L410.2,193.6 L412.2,199.1" fill="none" stroke="#5b4b8a" stroke-width="0.7"/>
<path d="M412.2,199.1 L417.7,197.8 L418.5,203.6" fill="none" stroke="#5b4b8a" stroke-width="0.7"/>
<path d="M418.5,203.6 L424.0,203.5 L423.6,209.3" fill="none" stroke="#5b4b8a" stroke-width="0.7"/>
<path d="M423.6,209.3 L429.1,210.4 L427.5,216.0" fill="none" stroke="#5b4b8a" stroke-width="0.7"/>
<path d="M427.5,216.0 L432.6,218.2 L429.9,223.3" fill="none" stroke="#5b4b8a" stroke-width="0.7"/>
<path d="M429.9,223.3 L434.4,226.5 L430.7,231.0" fill="none" stroke="#5b4b8a" stroke-width="0.7"/>
<circle cx="393.8" cy="231.0" r="14.8" fill="#9a3b2e" fill-opacity="0.18" stroke="#9a3b2e" stroke-width="1.3"/>
<text x="393.8" y="190.1" font-size="11" fill="#5b4b8a" text-anchor="middle">30</text>
<text x="399.8" y="234.0" font-size="9" fill="#9a3b2e">12</text>
<circle cx="393.8" cy="231.0" r="2.2" fill="#1f1c14"/>
<circle cx="45" cy="442.6" r="5" fill="none" stroke="#9a3b2e" stroke-width="1.4"/>
<text x="55" y="446.6" font-size="10" fill="#8a8170">Jicí soukolí</text>
<circle cx="162" cy="442.6" r="5" fill="none" stroke="#5b4b8a" stroke-width="1.4"/>
<text x="172" y="446.6" font-size="10" fill="#8a8170">Krok</text>
<text x="560" y="40" font-size="10" fill="#8a8170" text-anchor="end" font-style="italic">horonotace · vrstva E</text>
</svg>