<svg viewBox="0 0 600 462.6" xmlns="http://www.w3.org/2000/svg" font-family="Georgia,'Times New Roman',serif">
<rect width="600" height="462.6" fill="#f4eedd"/>
<text x="40" y="40" font-size="17" fill="#1f1c14">Věžní hodiny — ukázkový stroj <tspan font-size="12" fill="#8a8170">— čelní pohled</tspan></text>
<text x="40" y="58" font-size="11" fill="#8a8170">kola = roztečné kružnice (⌀ ∝ zubům) · záběr = dotyk kružnic · režim: schématický (z počtu zubů)</text>
<line x1="158.0" y1="228.0" x2="279.3" y2="282.0" stroke="#8a8170" stroke-width="0.6" stroke-dasharray="2 3"/>
<circle cx="265.8" cy="276.0" r="2.4" fill="none" stroke="#9a3b2e" stroke-width="1.1"/>
<line x1="279.3" y1="282.0" x2="391.6" y2="232.0" stroke="#8a8170" stroke-width="0.6" stroke-dasharray="2 3"/>
<circle cx="380.4" cy="237.0" r="2.4" fill="none" stroke="#9a3b2e" stroke-width="1.1"/>
<line x1="391.6" y1="232.0" x2="490.4" y2="276.0" stroke="#8a8170" stroke-width="0.6" stroke-dasharray="2 3"/>
<circle cx="481.4" cy="272.0" r="2.4" fill="none" stroke="#9a3b2e" stroke-width="1.1"/>
<circle cx="158.0" cy="228.0" r="118.0" fill="none" stroke="#9a3b2e" stroke-width="1.4"/>
<text x="158.0" y="106.0" font-size="11" fill="#9a3b2e" text-anchor="middle">96</text>
<circle cx="158.0" cy="228.0" r="2.2" fill="#1f1c14"/>
<circle cx="279.3" cy="282.0" r="110.6" fill="none" stroke="#9a3b2e" stroke-width="1.4"/>
<circle cx="279.3" cy="282.0" r="14.8" fill="#9a3b2e" fill-opacity="0.18" stroke="#9a3b2e" stroke-width="1.3"/>
<text x="279.3" y="167.4" font-size="11" fill="#9a3b2e" text-anchor="middle">90</text>
<text x="285.3" y="285.0" font-size="9" fill="#9a3b2e">12</text>
<circle cx="279.3" cy="282.0" r="2.2" fill="#1f1c14"/>
<circle cx="391.6" cy="232.0" r="98.3" fill="none" stroke="#9a3b2e" stroke-width="1.4"/>
<circle cx="391.6" cy="232.0" r="12.3" fill="#9a3b2e" fill-opacity="0.18" stroke="#9a3b2e" stroke-width="1.3"/>
<text x="391.6" y="129.7" font-size="11" fill="#9a3b2e" text-anchor="middle">80</text>
<text x="397.6" y="235.0" font-size="9" fill="#9a3b2e">10</text>
<circle cx="391.6" cy="232.0" r="2.2" fill="#1f1c14"/>
<circle cx="490.4" cy="276.0" r="36.9" fill="none" stroke="#5b4b8a" stroke-width="1.5"/>
<path d="M527.3,276.0 L531.1,280.1 L526.5,283.7" fill="none" stroke="#5b4b8a" stroke-width="0.7"/>
<path d="M526.5,283.7 L529.3,288.4 L524.1,291.0" fill="none" stroke="#5b4b8a" stroke-width="0.7"/>
<path d="M524.1,291.0 L525.9,296.3 L520.2,297.7" fill="none" stroke="#5b4b8a" stroke-width="0.7"/>
<path d="M520.2,297.7 L520.9,303.2 L515.1,303.4" fill="none" stroke="#5b4b8a" stroke-width="0.7"/>
<path d="M515.1,303.4 L514.6,309.0 L508.8,307.9" fill="none" stroke="#5b4b8a" stroke-width="0.7"/>
<path d="M508.8,307.9 L507.2,313.3 L501.8,311.1" fill="none" stroke="#5b4b8a" stroke-width="0.7"/>
<path d="M501.8,311.1 L499.1,315.9 L494.3,312.7" fill="none" stroke="#5b4b8a" stroke-width="0.7"/>
<path d="M494.3,312.7 L490.6,316.9 L486.5,312.7" fill="none" stroke="#5b4b8a" stroke-width="0.7"/>
<path d="M486.5,312.7 L482.1,316.0 L479.0,311.1" fill="none" stroke="#5b4b8a" stroke-width="0.7"/>
<path d="M479.0,311.1 L474.0,313.4 L472.0,307.9" fill="none" stroke="#5b4b8a" stroke-width="0.7"/>
<path d="M472.0,307.9 L466.5,309.2 L465.7,303.4" fill="none" stroke="#5b4b8a" stroke-width="0.7"/>
<path d="M465.7,303.4 L460.2,303.5 L460.6,297.7" fill="none" stroke="#5b4b8a" stroke-width="0.7"/>
<path d="M460.6,297.7 L455.1,296.6 L456.7,291.0" fill="none" stroke="#5b4b8a" stroke-width="0.7"/>
<path d="M456.7,291.0 L451.6,288.8 L454.3,283.7" fill="none" stroke="#5b4b8a" stroke-width="0.7"/>
<path d="M454.3,283.7 L449.8,280.5 L453.5,276.0" fill="none" stroke="#5b4b8a" stroke-width="0.7"/>
<path d="M453.5,276.0 L449.7,271.9 L454.3,268.3" fill="none" stroke="#5b4b8a" stroke-width="0.7"/>
<path d="M454.3,268.3 L451.5,263.6 L456.7,261.0" fill="none" stroke="#5b4b8a" stroke-width="0.7"/>
<path d="M456.7,261.0 L454.9,255.7 L460.6,254.3" fill="none" stroke="#5b4b8a" stroke-width="0.7"/>
<path d="M460.6,254.3 L459.9,248.8 L465.7,248.6" fill="none" stroke="#5b4b8a" stroke-width="0.7"/>
<path d="M465.7,248.6 L466.2,243.0 L472.0,244.1" fill="none" stroke="#5b4b8a" stroke-width="0.7"/>
<path d="M472.0,244.1 L473.6,238.7 L479.0,240.9" fill="none" stroke="#5b4b8a" stroke-width="0.7"/>
<path d="M479.0,240.9 L481.7,236.1 L486.5,239.3" fill="none" stroke="#5b4b8a" stroke-width="0.7"/>
<path d="M486.5,239.3 L490.2,235.1 L494.3,239.3" fill="none" stroke="#5b4b8a" stroke-width="0.7"/>
<path d="M494.3,239.3 L498.7,236.0 L501.8,240.9" fill="none" stroke="#5b4b8a" stroke-width="0.7"/>
<path d="M501.8,240.9 L506.8,238.6 L508.8,244.1" fill="none" stroke="#5b4b8a" stroke-width="0.7"/>
<path d="M508.8,244.1 L514.3,242.8 L515.1,248.6" fill="none" stroke="#5b4b8a" stroke-width="0.7"/>
<path d="M515.1,248.6 L520.6,248.5 L520.2,254.3" fill="none" stroke="#5b4b8a" stroke-width="0.7"/>
<path d="M520.2,254.3 L525.7,255.4 L524.1,261.0" fill="none" stroke="#5b4b8a" stroke-width="0.7"/>
<path d="M524.1,261.0 L529.2,263.2 L526.5,268.3" fill="none" stroke="#5b4b8a" stroke-width="0.7"/>
<path d="M526.5,268.3 L531.0,271.5 L527.3,276.0" fill="none" stroke="#5b4b8a" stroke-width="0.7"/>
<circle cx="490.4" cy="276.0" r="9.8" fill="#9a3b2e" fill-opacity="0.18" stroke="#9a3b2e" stroke-width="1.3"/>
<text x="490.4" y="235.1" font-size="11" fill="#5b4b8a" text-anchor="middle">30</text>
<text x="496.4" y="279.0" font-size="9" fill="#9a3b2e">8</text>
<circle cx="490.4" cy="276.0" r="2.2" fill="#1f1c14"/>
<circle cx="45" cy="442.6" r="5" fill="none" stroke="#9a3b2e" stroke-width="1.4"/>
<text x="55" y="446.6" font-size="10" fill="#8a8170">Jdoucí soukolí</text>
<circle cx="176" cy="442.6" r="5" fill="none" stroke="#5b4b8a" stroke-width="1.4"/>
<text x="186" y="446.6" font-size="10" fill="#8a8170">Krok</text>
<text x="560" y="40" font-size="10" fill="#8a8170" text-anchor="end" font-style="italic">horonotace · vrstva E</text>
</svg>