<svg viewBox="0 0 887.8 682" xmlns="http://www.w3.org/2000/svg" font-family="Georgia,'Times New Roman',serif" role="img">
<title>Věžní hodiny — ukázkový stroj</title><desc>Schématická elevace soukolí (horonotace, vrstva C).</desc>
<rect width="887.8" height="682" fill="#f4eedd"/>
<defs><marker id="ar" markerWidth="9" markerHeight="9" refX="7" refY="3" orient="auto"><path d="M0,0 L7,3 L0,6 z" fill="#33506b"/></marker></defs>
<text x="150" y="44" font-size="21" fill="#1f1c14">Věžní hodiny — ukázkový stroj</text>
<text x="150" y="66" font-size="12" fill="#6b6253">19. století</text>
<rect x="80" y="168" width="579.8" height="344" fill="none" stroke="#1f1c14" stroke-width="2.4"/>
<line x1="80" y1="162" x2="80" y2="518" stroke="#1f1c14" stroke-width="4.5"/>
<circle cx="80" cy="162" r="4" fill="#1f1c14"/>
<line x1="659.8" y1="162" x2="659.8" y2="518" stroke="#1f1c14" stroke-width="4.5"/>
<circle cx="659.8" cy="162" r="4" fill="#1f1c14"/>
<text x="84" y="156" font-size="12" fill="#6b6253" font-style="italic">Rám — klecový</text>
<path d="M124.0,148 L124.0,138 L443.8,138 L443.8,148" fill="none" stroke="#9a3b2e" stroke-width="1.2"/>
<text x="283.9" y="133" font-size="12.5" fill="#9a3b2e" text-anchor="middle">Jdoucí soukolí</text>
<path d="M391.8,148 L391.8,138 L443.8,138 L443.8,148" fill="none" stroke="#5b4b8a" stroke-width="1.2"/>
<text x="417.8" y="133" font-size="12.5" fill="#5b4b8a" text-anchor="middle">Krok</text>
<line x1="150.0" y1="168" x2="150.0" y2="512" stroke="#9a3b2e" stroke-opacity="0.6" stroke-width="1.2"/>
<line x1="145.5" y1="168" x2="154.5" y2="168" stroke="#1f1c14" stroke-width="1.8"/>
<line x1="145.5" y1="512" x2="154.5" y2="512" stroke="#1f1c14" stroke-width="1.8"/>
<line x1="247.7" y1="168" x2="247.7" y2="512" stroke="#9a3b2e" stroke-opacity="0.6" stroke-width="1.2"/>
<line x1="243.2" y1="168" x2="252.2" y2="168" stroke="#1f1c14" stroke-width="1.8"/>
<line x1="243.2" y1="512" x2="252.2" y2="512" stroke="#1f1c14" stroke-width="1.8"/>
<line x1="338.2" y1="168" x2="338.2" y2="512" stroke="#9a3b2e" stroke-opacity="0.6" stroke-width="1.2"/>
<line x1="333.7" y1="168" x2="342.7" y2="168" stroke="#1f1c14" stroke-width="1.8"/>
<line x1="333.7" y1="512" x2="342.7" y2="512" stroke="#1f1c14" stroke-width="1.8"/>
<line x1="417.8" y1="168" x2="417.8" y2="512" stroke="#9a3b2e" stroke-opacity="0.6" stroke-width="1.2"/>
<line x1="413.3" y1="168" x2="422.3" y2="168" stroke="#1f1c14" stroke-width="1.8"/>
<line x1="413.3" y1="512" x2="422.3" y2="512" stroke="#1f1c14" stroke-width="1.8"/>
<line x1="567.8" y1="168" x2="567.8" y2="512" stroke="#6b6253" stroke-opacity="0.6" stroke-width="1.2"/>
<line x1="563.3" y1="168" x2="572.3" y2="168" stroke="#1f1c14" stroke-width="1.8"/>
<line x1="563.3" y1="512" x2="572.3" y2="512" stroke="#1f1c14" stroke-width="1.8"/>
<path d="M212.0,232 H225.95 V232 H239.89999999999998" fill="none" stroke="#1f1c14" stroke-width="1.4"/>
<line x1="222.95" y1="229.0" x2="228.95" y2="235.0" stroke="#1f1c14" stroke-width="1"/>
<path d="M305.8,296 H318.75 V296 H331.7" fill="none" stroke="#1f1c14" stroke-width="1.4"/>
<line x1="315.75" y1="293.0" x2="321.75" y2="299.0" stroke="#1f1c14" stroke-width="1"/>
<path d="M389.9,360 H401.25 V360 H412.6" fill="none" stroke="#1f1c14" stroke-width="1.4"/>
<line x1="398.25" y1="357.0" x2="404.25" y2="363.0" stroke="#1f1c14" stroke-width="1"/>
<line x1="88.0" y1="232" x2="212.0" y2="232" stroke="#9a3b2e" stroke-width="1.9"/>
<line x1="88.0" y1="227" x2="88.0" y2="237" stroke="#9a3b2e" stroke-width="1.3"/>
<line x1="212.0" y1="227" x2="212.0" y2="237" stroke="#9a3b2e" stroke-width="1.3"/>
<text x="150.0" y="224" font-size="12.5" font-style="italic" fill="#1f1c14" text-anchor="middle">96</text>
<rect x="147.0" y="229" width="6" height="6" fill="#9a3b2e"/>
<line x1="239.89999999999998" y1="232" x2="255.5" y2="232" stroke="#9a3b2e" stroke-width="1.9"/>
<line x1="239.89999999999998" y1="227" x2="239.89999999999998" y2="237" stroke="#9a3b2e" stroke-width="1.3"/>
<line x1="255.5" y1="227" x2="255.5" y2="237" stroke="#9a3b2e" stroke-width="1.3"/>
<text x="247.7" y="224" font-size="12.5" font-style="italic" fill="#1f1c14" text-anchor="middle">12</text>
<rect x="244.7" y="229" width="6" height="6" fill="#9a3b2e"/>
<line x1="189.6" y1="296" x2="305.8" y2="296" stroke="#9a3b2e" stroke-width="1.9"/>
<line x1="189.6" y1="291" x2="189.6" y2="301" stroke="#9a3b2e" stroke-width="1.3"/>
<line x1="305.8" y1="291" x2="305.8" y2="301" stroke="#9a3b2e" stroke-width="1.3"/>
<text x="247.7" y="288" font-size="12.5" font-style="italic" fill="#1f1c14" text-anchor="middle">90</text>
<rect x="244.7" y="293" width="6" height="6" fill="#9a3b2e"/>
<line x1="331.7" y1="296" x2="344.7" y2="296" stroke="#9a3b2e" stroke-width="1.9"/>
<line x1="331.7" y1="291" x2="331.7" y2="301" stroke="#9a3b2e" stroke-width="1.3"/>
<line x1="344.7" y1="291" x2="344.7" y2="301" stroke="#9a3b2e" stroke-width="1.3"/>
<text x="338.2" y="288" font-size="12.5" font-style="italic" fill="#1f1c14" text-anchor="middle">10</text>
<rect x="335.2" y="293" width="6" height="6" fill="#9a3b2e"/>
<line x1="286.5" y1="360" x2="389.9" y2="360" stroke="#9a3b2e" stroke-width="1.9"/>
<line x1="286.5" y1="355" x2="286.5" y2="365" stroke="#9a3b2e" stroke-width="1.3"/>
<line x1="389.9" y1="355" x2="389.9" y2="365" stroke="#9a3b2e" stroke-width="1.3"/>
<text x="338.2" y="352" font-size="12.5" font-style="italic" fill="#1f1c14" text-anchor="middle">80</text>
<rect x="335.2" y="357" width="6" height="6" fill="#9a3b2e"/>
<line x1="412.6" y1="360" x2="423.0" y2="360" stroke="#9a3b2e" stroke-width="1.9"/>
<line x1="412.6" y1="355" x2="412.6" y2="365" stroke="#9a3b2e" stroke-width="1.3"/>
<line x1="423.0" y1="355" x2="423.0" y2="365" stroke="#9a3b2e" stroke-width="1.3"/>
<text x="417.8" y="352" font-size="12.5" font-style="italic" fill="#1f1c14" text-anchor="middle">8</text>
<rect x="414.8" y="357" width="6" height="6" fill="#9a3b2e"/>
<line x1="398.40000000000003" y1="424" x2="437.2" y2="424" stroke="#9a3b2e" stroke-width="1.9"/>
<path d="M398.40000000000003,429 L398.40000000000003,419 L404.40000000000003,423" fill="none" stroke="#9a3b2e" stroke-width="1.4"/>
<path d="M437.2,429 L437.2,419 L431.2,423" fill="none" stroke="#9a3b2e" stroke-width="1.4"/>
<text x="417.8" y="439" font-size="12.5" font-style="italic" fill="#1f1c14" text-anchor="middle">30</text>
<rect x="414.8" y="421" width="6" height="6" fill="#9a3b2e"/>
<text x="445.2" y="427" font-size="10" font-style="italic" fill="#9a3b2e">krok: kotvový</text>
<path d="M408.8,421 L417.8,407 L426.8,421" fill="none" stroke="#1f1c14" stroke-width="1.6"/>
<line x1="408.8" y1="418" x2="411.8" y2="423" stroke="#1f1c14" stroke-width="2.3"/>
<line x1="426.8" y1="418" x2="423.8" y2="423" stroke="#1f1c14" stroke-width="2.3"/>
<circle cx="417.8" cy="407" r="1.8" fill="#1f1c14"/>
<circle cx="567.8" cy="232" r="5" fill="none" stroke="#1f1c14" stroke-width="1.3"/>
<line x1="562.8" y1="232" x2="572.8" y2="232" stroke="#1f1c14" stroke-width="0.8"/>
<text x="577.8" y="235" font-size="10" fill="#6b6253">pocitadlo</text>
<line x1="247.7" y1="296" x2="247.7" y2="98" stroke="#9a3b2e" stroke-width="1.3"/>
<text x="247.7" y="93" font-size="11.5" fill="#9a3b2e" text-anchor="middle">▲ minuty</text>
<line x1="417.8" y1="512" x2="417.8" y2="586" stroke="#1f1c14" stroke-width="1.3"/>
<circle cx="417.8" cy="598" r="11" fill="none" stroke="#1f1c14" stroke-width="1.6"/>
<text x="434.8" y="602" font-size="11" fill="#6b6253">kyvadlo 2 s</text>
<line x1="150.0" y1="512" x2="150.0" y2="542" stroke="#705f31" stroke-width="1.1"/>
<path d="M140.0,542 h20 l-3,26 h-14 z" fill="none" stroke="#705f31" stroke-width="1.5"/>
<line x1="143.0" y1="548" x2="157.0" y2="548" stroke="#705f31" stroke-width="0.7"/>
<line x1="143.0" y1="553" x2="157.0" y2="553" stroke="#705f31" stroke-width="0.7"/>
<line x1="143.0" y1="558" x2="157.0" y2="558" stroke="#705f31" stroke-width="0.7"/>
<line x1="143.0" y1="563" x2="157.0" y2="563" stroke="#705f31" stroke-width="0.7"/>
<text x="150.0" y="584" font-size="10.5" fill="#705f31" text-anchor="middle">závaží</text>
<circle cx="628.8" cy="204" r="1.6" fill="#1f1c14"/>
<line x1="628.8" y1="204" x2="644.8" y2="192" stroke="#1f1c14" stroke-width="1.4"/>
<rect x="642.8" y="188" width="7" height="6" fill="#1f1c14"/>
<text x="650.8" y="195" font-size="9" fill="#1f1c14">kladivo</text>
<path d="M629.8,244 q0,-14 8,-14 q8,0 8,14 z" fill="none" stroke="#1f1c14" stroke-width="1.4"/>
<line x1="627.8" y1="244" x2="647.8" y2="244" stroke="#1f1c14" stroke-width="1.2"/>
<text x="650.8" y="235" font-size="9" fill="#1f1c14">cimbál</text>
<rect x="150" y="643" width="9" height="9" fill="#1f1c14"/>
<text x="164" y="652" font-size="11" fill="#6b6253">klíny = kolo spojené se svou dráhou</text>
<line x1="400" y1="641" x2="400" y2="654" stroke="#6b6253" stroke-width="1.1"/>
<line x1="397" y1="644" x2="397" y2="654" stroke="#6b6253" stroke-width="1"/>
<line x1="403" y1="644" x2="403" y2="654" stroke="#6b6253" stroke-width="1"/>
<line x1="394" y1="647" x2="394" y2="654" stroke="#6b6253" stroke-width="1"/>
<line x1="406" y1="647" x2="406" y2="654" stroke="#6b6253" stroke-width="1"/>
<text x="414" y="652" font-size="11" fill="#6b6253">osa (nejdelší) + kratší trubky → ukazatele</text>
<text x="150" y="670" font-size="10" fill="#6b6253" font-style="italic">barva = jednotlivá dráha (osa/trubka) · délka úsečky kola ∝ roztečnému průměru (∝ z)</text>
<text x="857.8" y="668" font-size="10" fill="#6b6253" text-anchor="end" font-style="italic">horonotace · vrstva C</text>
</svg>