<svg viewBox="0 0 1292.9 682" xmlns="http://www.w3.org/2000/svg" font-family="Georgia,'Times New Roman',serif" role="img">
<title>Tower clock — typical movement (going + striking)</title><desc>Schematic gear elevation (horonotace, layer C).</desc>
<rect width="1292.9" height="682" fill="#f4eedd"/>
<defs><marker id="ar" markerWidth="9" markerHeight="9" refX="7" refY="3" orient="auto"><path d="M0,0 L7,3 L0,6 z" fill="#33506b"/></marker></defs>
<text x="150" y="44" font-size="21" fill="#1f1c14">Tower clock — typical movement (going + striking)</text>
<text x="150" y="66" font-size="12" fill="#6b6253">19th century</text>
<rect x="80" y="168" width="984.9000000000001" height="344" fill="none" stroke="#1f1c14" stroke-width="2.4"/>
<line x1="80" y1="162" x2="80" y2="518" stroke="#1f1c14" stroke-width="4.5"/>
<circle cx="80" cy="162" r="4" fill="#1f1c14"/>
<line x1="1064.9" y1="162" x2="1064.9" y2="518" stroke="#1f1c14" stroke-width="4.5"/>
<circle cx="1064.9" cy="162" r="4" fill="#1f1c14"/>
<text x="84" y="156" font-size="12" fill="#6b6253" font-style="italic">Frame — flatbed</text>
<path d="M124.0,148 L124.0,138 L463.7,138 L463.7,148" fill="none" stroke="#9a3b2e" stroke-width="1.2"/>
<text x="293.85" y="133" font-size="12.5" fill="#9a3b2e" text-anchor="middle">Going train</text>
<path d="M411.7,148 L411.7,138 L463.7,138 L463.7,148" fill="none" stroke="#5b4b8a" stroke-width="1.2"/>
<text x="437.7" y="133" font-size="12.5" fill="#5b4b8a" text-anchor="middle">Escapement</text>
<path d="M561.7,148 L561.7,138 L848.9,138 L848.9,148" fill="none" stroke="#3f7d56" stroke-width="1.2"/>
<text x="705.3" y="133" font-size="12.5" fill="#3f7d56" text-anchor="middle">Striking train (count-wheel)</text>
<line x1="150.0" y1="168" x2="150.0" y2="512" stroke="#9a3b2e" stroke-opacity="0.6" stroke-width="1.2"/>
<line x1="145.5" y1="168" x2="154.5" y2="168" stroke="#1f1c14" stroke-width="1.8"/>
<line x1="145.5" y1="512" x2="154.5" y2="512" stroke="#1f1c14" stroke-width="1.8"/>
<line x1="247.7" y1="168" x2="247.7" y2="512" stroke="#9a3b2e" stroke-opacity="0.6" stroke-width="1.2"/>
<line x1="243.2" y1="168" x2="252.2" y2="168" stroke="#1f1c14" stroke-width="1.8"/>
<line x1="243.2" y1="512" x2="252.2" y2="512" stroke="#1f1c14" stroke-width="1.8"/>
<line x1="345.4" y1="168" x2="345.4" y2="512" stroke="#9a3b2e" stroke-opacity="0.6" stroke-width="1.2"/>
<line x1="340.9" y1="168" x2="349.9" y2="168" stroke="#1f1c14" stroke-width="1.8"/>
<line x1="340.9" y1="512" x2="349.9" y2="512" stroke="#1f1c14" stroke-width="1.8"/>
<line x1="437.7" y1="168" x2="437.7" y2="512" stroke="#9a3b2e" stroke-opacity="0.6" stroke-width="1.2"/>
<line x1="433.2" y1="168" x2="442.2" y2="168" stroke="#1f1c14" stroke-width="1.8"/>
<line x1="433.2" y1="512" x2="442.2" y2="512" stroke="#1f1c14" stroke-width="1.8"/>
<line x1="587.7" y1="168" x2="587.7" y2="512" stroke="#3f7d56" stroke-opacity="0.6" stroke-width="1.2"/>
<line x1="583.2" y1="168" x2="592.2" y2="168" stroke="#1f1c14" stroke-width="1.8"/>
<line x1="583.2" y1="512" x2="592.2" y2="512" stroke="#1f1c14" stroke-width="1.8"/>
<line x1="685.4" y1="168" x2="685.4" y2="512" stroke="#3f7d56" stroke-opacity="0.6" stroke-width="1.2"/>
<line x1="680.9" y1="168" x2="689.9" y2="168" stroke="#1f1c14" stroke-width="1.8"/>
<line x1="680.9" y1="512" x2="689.9" y2="512" stroke="#1f1c14" stroke-width="1.8"/>
<line x1="772.2" y1="168" x2="772.2" y2="512" stroke="#3f7d56" stroke-opacity="0.6" stroke-width="1.2"/>
<line x1="767.7" y1="168" x2="776.7" y2="168" stroke="#1f1c14" stroke-width="1.8"/>
<line x1="767.7" y1="512" x2="776.7" y2="512" stroke="#1f1c14" stroke-width="1.8"/>
<line x1="822.9" y1="168" x2="822.9" y2="512" stroke="#3f7d56" stroke-opacity="0.6" stroke-width="1.2"/>
<line x1="818.4" y1="168" x2="827.4" y2="168" stroke="#1f1c14" stroke-width="1.8"/>
<line x1="818.4" y1="512" x2="827.4" y2="512" stroke="#1f1c14" stroke-width="1.8"/>
<line x1="972.9" y1="168" x2="972.9" y2="512" stroke="#6b6253" stroke-opacity="0.6" stroke-width="1.2"/>
<line x1="968.4" y1="168" x2="977.4" y2="168" stroke="#1f1c14" stroke-width="1.8"/>
<line x1="968.4" y1="512" x2="977.4" y2="512" stroke="#1f1c14" stroke-width="1.8"/>
<path d="M212.0,232 H225.95 V232 H239.89999999999998" fill="none" stroke="#1f1c14" stroke-width="1.4"/>
<line x1="222.95" y1="229.0" x2="228.95" y2="235.0" stroke="#1f1c14" stroke-width="1"/>
<path d="M309.7,296 H323.65 V296 H337.59999999999997" fill="none" stroke="#1f1c14" stroke-width="1.4"/>
<line x1="320.65" y1="293.0" x2="326.65" y2="299.0" stroke="#1f1c14" stroke-width="1"/>
<path d="M403.5,360 H416.7 V360 H429.9" fill="none" stroke="#1f1c14" stroke-width="1.4"/>
<line x1="413.7" y1="357.0" x2="419.7" y2="363.0" stroke="#1f1c14" stroke-width="1"/>
<path d="M649.7,232 H663.6500000000001 V232 H677.6" fill="none" stroke="#1f1c14" stroke-width="1.4"/>
<line x1="660.6500000000001" y1="229.0" x2="666.6500000000001" y2="235.0" stroke="#1f1c14" stroke-width="1"/>
<path d="M739.6,296 H752.0 V232 H764.4000000000001" fill="none" stroke="#1f1c14" stroke-width="1.4"/>
<line x1="749.0" y1="261.0" x2="755.0" y2="267.0" stroke="#1f1c14" stroke-width="1"/>
<path d="M803.2,296 H810.45 V232 H817.6999999999999" fill="none" stroke="#1f1c14" stroke-width="1.4"/>
<line x1="807.45" y1="261.0" x2="813.45" y2="267.0" stroke="#1f1c14" stroke-width="1"/>
<line x1="88.0" y1="232" x2="212.0" y2="232" stroke="#9a3b2e" stroke-width="1.9"/>
<line x1="88.0" y1="227" x2="88.0" y2="237" stroke="#9a3b2e" stroke-width="1.3"/>
<line x1="212.0" y1="227" x2="212.0" y2="237" stroke="#9a3b2e" stroke-width="1.3"/>
<text x="150.0" y="224" font-size="12.5" font-style="italic" fill="#1f1c14" text-anchor="middle">96</text>
<rect x="147.0" y="229" width="6" height="6" fill="#9a3b2e"/>
<line x1="239.89999999999998" y1="232" x2="255.5" y2="232" stroke="#9a3b2e" stroke-width="1.9"/>
<line x1="239.89999999999998" y1="227" x2="239.89999999999998" y2="237" stroke="#9a3b2e" stroke-width="1.3"/>
<line x1="255.5" y1="227" x2="255.5" y2="237" stroke="#9a3b2e" stroke-width="1.3"/>
<text x="247.7" y="224" font-size="12.5" font-style="italic" fill="#1f1c14" text-anchor="middle">12</text>
<rect x="244.7" y="229" width="6" height="6" fill="#9a3b2e"/>
<line x1="185.7" y1="296" x2="309.7" y2="296" stroke="#9a3b2e" stroke-width="1.9"/>
<line x1="185.7" y1="291" x2="185.7" y2="301" stroke="#9a3b2e" stroke-width="1.3"/>
<line x1="309.7" y1="291" x2="309.7" y2="301" stroke="#9a3b2e" stroke-width="1.3"/>
<text x="247.7" y="288" font-size="12.5" font-style="italic" fill="#1f1c14" text-anchor="middle">96</text>
<rect x="244.7" y="293" width="6" height="6" fill="#9a3b2e"/>
<line x1="337.59999999999997" y1="296" x2="353.2" y2="296" stroke="#9a3b2e" stroke-width="1.9"/>
<line x1="337.59999999999997" y1="291" x2="337.59999999999997" y2="301" stroke="#9a3b2e" stroke-width="1.3"/>
<line x1="353.2" y1="291" x2="353.2" y2="301" stroke="#9a3b2e" stroke-width="1.3"/>
<text x="345.4" y="288" font-size="12.5" font-style="italic" fill="#1f1c14" text-anchor="middle">12</text>
<rect x="342.4" y="293" width="6" height="6" fill="#9a3b2e"/>
<line x1="287.29999999999995" y1="360" x2="403.5" y2="360" stroke="#9a3b2e" stroke-width="1.9"/>
<line x1="287.29999999999995" y1="355" x2="287.29999999999995" y2="365" stroke="#9a3b2e" stroke-width="1.3"/>
<line x1="403.5" y1="355" x2="403.5" y2="365" stroke="#9a3b2e" stroke-width="1.3"/>
<text x="345.4" y="352" font-size="12.5" font-style="italic" fill="#1f1c14" text-anchor="middle">90</text>
<rect x="342.4" y="357" width="6" height="6" fill="#9a3b2e"/>
<line x1="429.9" y1="360" x2="445.5" y2="360" stroke="#9a3b2e" stroke-width="1.9"/>
<line x1="429.9" y1="355" x2="429.9" y2="365" stroke="#9a3b2e" stroke-width="1.3"/>
<line x1="445.5" y1="355" x2="445.5" y2="365" stroke="#9a3b2e" stroke-width="1.3"/>
<text x="437.7" y="352" font-size="12.5" font-style="italic" fill="#1f1c14" text-anchor="middle">12</text>
<rect x="434.7" y="357" width="6" height="6" fill="#9a3b2e"/>
<line x1="418.3" y1="424" x2="457.09999999999997" y2="424" stroke="#9a3b2e" stroke-width="1.9"/>
<path d="M418.3,429 L418.3,419 L424.3,423" fill="none" stroke="#9a3b2e" stroke-width="1.4"/>
<path d="M457.09999999999997,429 L457.09999999999997,419 L451.09999999999997,423" fill="none" stroke="#9a3b2e" stroke-width="1.4"/>
<text x="437.7" y="439" font-size="12.5" font-style="italic" fill="#1f1c14" text-anchor="middle">30</text>
<rect x="434.7" y="421" width="6" height="6" fill="#9a3b2e"/>
<text x="465.1" y="427" font-size="10" font-style="italic" fill="#9a3b2e">escapement: recoil anchor</text>
<path d="M428.7,421 L437.7,407 L446.7,421" fill="none" stroke="#1f1c14" stroke-width="1.6"/>
<line x1="428.7" y1="418" x2="431.7" y2="423" stroke="#1f1c14" stroke-width="2.3"/>
<line x1="446.7" y1="418" x2="443.7" y2="423" stroke="#1f1c14" stroke-width="2.3"/>
<circle cx="437.7" cy="407" r="1.8" fill="#1f1c14"/>
<line x1="525.7" y1="232" x2="649.7" y2="232" stroke="#3f7d56" stroke-width="1.9"/>
<line x1="525.7" y1="227" x2="525.7" y2="237" stroke="#3f7d56" stroke-width="1.3"/>
<line x1="649.7" y1="227" x2="649.7" y2="237" stroke="#3f7d56" stroke-width="1.3"/>
<text x="587.7" y="224" font-size="12.5" font-style="italic" fill="#1f1c14" text-anchor="middle">96</text>
<rect x="584.7" y="229" width="6" height="6" fill="#3f7d56"/>
<line x1="677.6" y1="232" x2="693.1999999999999" y2="232" stroke="#3f7d56" stroke-width="1.9"/>
<line x1="677.6" y1="227" x2="677.6" y2="237" stroke="#3f7d56" stroke-width="1.3"/>
<line x1="693.1999999999999" y1="227" x2="693.1999999999999" y2="237" stroke="#3f7d56" stroke-width="1.3"/>
<text x="685.4" y="224" font-size="12.5" font-style="italic" fill="#1f1c14" text-anchor="middle">12</text>
<rect x="682.4" y="229" width="6" height="6" fill="#3f7d56"/>
<line x1="631.1999999999999" y1="296" x2="739.6" y2="296" stroke="#3f7d56" stroke-width="1.9"/>
<line x1="631.1999999999999" y1="291" x2="631.1999999999999" y2="301" stroke="#3f7d56" stroke-width="1.3"/>
<line x1="739.6" y1="291" x2="739.6" y2="301" stroke="#3f7d56" stroke-width="1.3"/>
<text x="685.4" y="288" font-size="12.5" font-style="italic" fill="#1f1c14" text-anchor="middle">84</text>
<rect x="682.4" y="293" width="6" height="6" fill="#3f7d56"/>
<line x1="764.4000000000001" y1="232" x2="780.0" y2="232" stroke="#3f7d56" stroke-width="1.9"/>
<line x1="764.4000000000001" y1="227" x2="764.4000000000001" y2="237" stroke="#3f7d56" stroke-width="1.3"/>
<line x1="780.0" y1="227" x2="780.0" y2="237" stroke="#3f7d56" stroke-width="1.3"/>
<text x="772.2" y="224" font-size="12.5" font-style="italic" fill="#1f1c14" text-anchor="middle">12</text>
<rect x="769.2" y="229" width="6" height="6" fill="#3f7d56"/>
<line x1="741.2" y1="296" x2="803.2" y2="296" stroke="#3f7d56" stroke-width="1.9"/>
<line x1="741.2" y1="291" x2="741.2" y2="301" stroke="#3f7d56" stroke-width="1.3"/>
<line x1="803.2" y1="291" x2="803.2" y2="301" stroke="#3f7d56" stroke-width="1.3"/>
<text x="772.2" y="288" font-size="12.5" font-style="italic" fill="#1f1c14" text-anchor="middle">48</text>
<rect x="769.2" y="293" width="6" height="6" fill="#3f7d56"/>
<line x1="817.6999999999999" y1="232" x2="828.1" y2="232" stroke="#3f7d56" stroke-width="1.9"/>
<line x1="817.6999999999999" y1="227" x2="817.6999999999999" y2="237" stroke="#3f7d56" stroke-width="1.3"/>
<line x1="828.1" y1="227" x2="828.1" y2="237" stroke="#3f7d56" stroke-width="1.3"/>
<text x="822.9" y="224" font-size="12.5" font-style="italic" fill="#1f1c14" text-anchor="middle">8</text>
<rect x="819.9" y="229" width="6" height="6" fill="#3f7d56"/>
<circle cx="822.9" cy="232" r="5" fill="none" stroke="#1f1c14" stroke-width="1.3"/>
<line x1="817.9" y1="232" x2="827.9" y2="232" stroke="#1f1c14" stroke-width="0.8"/>
<text x="832.9" y="235" font-size="10" fill="#6b6253">fly</text>
<circle cx="972.9" cy="232" r="5" fill="none" stroke="#1f1c14" stroke-width="1.3"/>
<line x1="967.9" y1="232" x2="977.9" y2="232" stroke="#1f1c14" stroke-width="0.8"/>
<text x="982.9" y="235" font-size="10" fill="#6b6253">count wheel</text>
<line x1="247.7" y1="296" x2="247.7" y2="98" stroke="#9a3b2e" stroke-width="1.3"/>
<text x="247.7" y="93" font-size="11.5" fill="#9a3b2e" text-anchor="middle">▲ minutes</text>
<line x1="437.7" y1="512" x2="437.7" y2="586" stroke="#1f1c14" stroke-width="1.3"/>
<circle cx="437.7" cy="598" r="11" fill="none" stroke="#1f1c14" stroke-width="1.6"/>
<text x="454.7" y="602" font-size="11" fill="#6b6253">pendulum 2 s</text>
<rect x="139.2" y="463" width="21.6" height="18" rx="2" fill="none" stroke="#705f31" stroke-width="1.5"/>
<line x1="143.5" y1="463" x2="143.5" y2="481" stroke="#705f31" stroke-opacity="0.55" stroke-width="0.7"/>
<line x1="147.8" y1="463" x2="147.8" y2="481" stroke="#705f31" stroke-opacity="0.55" stroke-width="0.7"/>
<line x1="152.2" y1="463" x2="152.2" y2="481" stroke="#705f31" stroke-opacity="0.55" stroke-width="0.7"/>
<line x1="156.5" y1="463" x2="156.5" y2="481" stroke="#705f31" stroke-opacity="0.55" stroke-width="0.7"/>
<text x="166.8" y="475" font-size="9.5" fill="#705f31">drum ⌀180 mm, 8 turns</text>
<line x1="139.2" y1="481" x2="139.2" y2="542" stroke="#705f31" stroke-width="1.1"/>
<path d="M129.2,542 h20 l-3,26 h-14 z" fill="none" stroke="#705f31" stroke-width="1.5"/>
<line x1="132.2" y1="548" x2="146.2" y2="548" stroke="#705f31" stroke-width="0.7"/>
<line x1="132.2" y1="553" x2="146.2" y2="553" stroke="#705f31" stroke-width="0.7"/>
<line x1="132.2" y1="558" x2="146.2" y2="558" stroke="#705f31" stroke-width="0.7"/>
<line x1="132.2" y1="563" x2="146.2" y2="563" stroke="#705f31" stroke-width="0.7"/>
<text x="139.2" y="584" font-size="10.5" fill="#705f31" text-anchor="middle">weight</text>
<rect x="146.0" y="184" width="8" height="8" fill="none" stroke="#705f31" stroke-width="1.2" transform="rotate(45 150.0 188)"/>
<path d="M150.0,188 h26 v-20" fill="none" stroke="#705f31" stroke-width="1.6"/>
<circle cx="176.0" cy="168" r="2.8" fill="#705f31"/>
<circle cx="150.0" cy="207" r="6.5" fill="none" stroke="#705f31" stroke-width="1.1"/>
<path d="M144.0,204 l2,-4 l2,4 l2,-4 l2,4 l2,-4" fill="none" stroke="#705f31" stroke-width="0.9"/>
<circle cx="162.0" cy="198" r="1.5" fill="#705f31"/>
<path d="M162.0,198 l-7,7" fill="none" stroke="#705f31" stroke-width="1.2"/>
<text x="184.0" y="172" font-size="9" fill="#705f31">winding by crank</text>
<rect x="576.9" y="463" width="21.6" height="18" rx="2" fill="none" stroke="#705f31" stroke-width="1.5"/>
<line x1="581.2" y1="463" x2="581.2" y2="481" stroke="#705f31" stroke-opacity="0.55" stroke-width="0.7"/>
<line x1="585.5" y1="463" x2="585.5" y2="481" stroke="#705f31" stroke-opacity="0.55" stroke-width="0.7"/>
<line x1="589.9" y1="463" x2="589.9" y2="481" stroke="#705f31" stroke-opacity="0.55" stroke-width="0.7"/>
<line x1="594.2" y1="463" x2="594.2" y2="481" stroke="#705f31" stroke-opacity="0.55" stroke-width="0.7"/>
<text x="604.5" y="475" font-size="9.5" fill="#705f31">drum ⌀180 mm, 8 turns</text>
<line x1="576.9" y1="481" x2="576.9" y2="542" stroke="#705f31" stroke-width="1.1"/>
<path d="M566.9,542 h20 l-3,26 h-14 z" fill="none" stroke="#705f31" stroke-width="1.5"/>
<line x1="569.9" y1="548" x2="583.9" y2="548" stroke="#705f31" stroke-width="0.7"/>
<line x1="569.9" y1="553" x2="583.9" y2="553" stroke="#705f31" stroke-width="0.7"/>
<line x1="569.9" y1="558" x2="583.9" y2="558" stroke="#705f31" stroke-width="0.7"/>
<line x1="569.9" y1="563" x2="583.9" y2="563" stroke="#705f31" stroke-width="0.7"/>
<text x="576.9" y="584" font-size="10.5" fill="#705f31" text-anchor="middle">weight</text>
<rect x="583.7" y="184" width="8" height="8" fill="none" stroke="#705f31" stroke-width="1.2" transform="rotate(45 587.7 188)"/>
<path d="M587.7,188 h26 v-20" fill="none" stroke="#705f31" stroke-width="1.6"/>
<circle cx="613.7" cy="168" r="2.8" fill="#705f31"/>
<circle cx="587.7" cy="207" r="6.5" fill="none" stroke="#705f31" stroke-width="1.1"/>
<path d="M581.7,204 l2,-4 l2,4 l2,-4 l2,4 l2,-4" fill="none" stroke="#705f31" stroke-width="0.9"/>
<circle cx="599.7" cy="198" r="1.5" fill="#705f31"/>
<path d="M599.7,198 l-7,7" fill="none" stroke="#705f31" stroke-width="1.2"/>
<text x="621.7" y="172" font-size="9" fill="#705f31">winding</text>
<circle cx="250.7" cy="256" r="1.8" fill="#1f1c14"/>
<path d="M250.7,256 L268.7,267 M250.7,256 L254.7,270" fill="none" stroke="#1f1c14" stroke-width="1.4"/>
<text x="272.7" y="259" font-size="9" fill="#1f1c14">lifting piece</text>
<circle cx="590.7" cy="192" r="1.8" fill="#1f1c14"/>
<path d="M590.7,192 L608.7,203 M590.7,192 L594.7,206" fill="none" stroke="#1f1c14" stroke-width="1.4"/>
<text x="612.7" y="195" font-size="9" fill="#1f1c14">locking lever</text>
<circle cx="775.2" cy="268" r="1.6" fill="#1f1c14"/>
<line x1="775.2" y1="268" x2="791.2" y2="256" stroke="#1f1c14" stroke-width="1.4"/>
<rect x="789.2" y="252" width="7" height="6" fill="#1f1c14"/>
<text x="797.2" y="259" font-size="9" fill="#1f1c14">hammer</text>
<path d="M788.2,234 q0,-14 8,-14 q8,0 8,14 z" fill="none" stroke="#1f1c14" stroke-width="1.4"/>
<line x1="786.2" y1="234" x2="806.2" y2="234" stroke="#1f1c14" stroke-width="1.2"/>
<text x="809.2" y="225" font-size="9" fill="#1f1c14">bell</text>
<path d="M247.7,296 L259.7,262" fill="none" stroke="#9a3b2e" stroke-width="1.2" stroke-dasharray="5 3"/>
<path d="M259.7,262 L599.7,198" fill="none" stroke="#9a3b2e" stroke-width="1.2" stroke-dasharray="5 3"/>
<path d="M599.7,198 L587.7,232" fill="none" stroke="#9a3b2e" stroke-width="1" stroke-dasharray="2 3"/>
<line x1="588.7" y1="211.0" x2="598.7" y2="219.0" stroke="#9a3b2e" stroke-width="2"/>
<path d="M772.2,296 L784.2,262" fill="none" stroke="#9a3b2e" stroke-width="1.2" stroke-dasharray="5 3"/>
<path d="M784.2,262 L796.2,228" fill="none" stroke="#9a3b2e" stroke-width="1.2" stroke-dasharray="5 3"/>
<rect x="150" y="643" width="9" height="9" fill="#1f1c14"/>
<text x="164" y="652" font-size="11" fill="#6b6253">squares = wheel fixed to its path</text>
<line x1="400" y1="641" x2="400" y2="654" stroke="#6b6253" stroke-width="1.1"/>
<line x1="397" y1="644" x2="397" y2="654" stroke="#6b6253" stroke-width="1"/>
<line x1="403" y1="644" x2="403" y2="654" stroke="#6b6253" stroke-width="1"/>
<line x1="394" y1="647" x2="394" y2="654" stroke="#6b6253" stroke-width="1"/>
<line x1="406" y1="647" x2="406" y2="654" stroke="#6b6253" stroke-width="1"/>
<text x="414" y="652" font-size="11" fill="#6b6253">axis (longest) + shorter tubes → indicators</text>
<text x="150" y="670" font-size="10" fill="#6b6253" font-style="italic">colour = individual path (arbor/tube) · wheel-bar length ∝ pitch diameter (∝ z)</text>
<text x="1262.9" y="668" font-size="10" fill="#6b6253" text-anchor="end" font-style="italic">horonotace · layer C</text>
</svg>